<svg version="1.1" id="Ebene_1" xmlns="http://www.w3.org/2000/svg" x="0px" y="0px" viewBox="0 0 198.7 152.8" style="enable-background:new 0 0 198.7 152.8;" xml:space="preserve">
<style type="text/css">
	.st0{fill:#83D0F0;}
	.st1{fill:#009EE0;}
</style>
	<path class="st0" d="M76,15.8c-0.3,0.1-0.5,0.3-0.7,0.5c-0.2,0.2-0.4,0.4-0.6,0.6c-0.1,0.2-0.3,0.4-0.3,0.7
	c-0.1,0.2-0.1,0.4-0.1,0.7l0.7,5.3c0,0.2,0.1,0.4,0.2,0.6c0.1,0.2,0.3,0.3,0.6,0.4c0.2,0.1,0.5,0.1,0.7,0.1c0.3,0,0.6-0.1,0.8-0.2
	c0.3-0.1,0.6-0.3,0.8-0.5c0.2-0.2,0.4-0.5,0.6-0.7c0.2-0.2,0.3-0.5,0.3-0.8c0.1-0.3,0.1-0.5,0.1-0.8l-1.1-5.1c0-0.2-0.1-0.4-0.2-0.5
	c-0.1-0.1-0.3-0.2-0.5-0.3c-0.2,0-0.4,0-0.7,0C76.4,15.6,76.2,15.7,76,15.8z"/>
	<path class="st0" d="M48.4,32.6c0,0-0.1,0.1-0.1,0.1l-0.1,0.1c-0.1,0-0.1,0.1-0.1,0.1c0,0-0.1,0.1-0.1,0.1c-0.2,0.1-0.4,0.3-0.6,0.5
	c-0.1,0.2-0.2,0.4-0.2,0.6c0,0.2,0,0.4,0.1,0.5c0.1,0.2,0.3,0.3,0.5,0.4l5,2.8c0.2,0.1,0.4,0.2,0.7,0.2c0.3,0.1,0.5,0.1,0.8,0.1
	c0.3,0,0.5,0,0.8-0.1c0.3-0.1,0.5-0.2,0.8-0.3l0.2-0.1l0.1-0.1l0.2-0.1c0.1,0,0.1-0.1,0.1-0.1c0.2-0.2,0.4-0.4,0.6-0.6
	c0.1-0.2,0.2-0.4,0.2-0.7c0-0.2-0.1-0.4-0.2-0.6c-0.2-0.2-0.3-0.4-0.6-0.5l-5.2-2.6c-0.2-0.1-0.4-0.2-0.6-0.2c-0.2,0-0.5,0-0.7,0
	c-0.2,0-0.5,0.1-0.7,0.1C48.8,32.5,48.6,32.5,48.4,32.6z"/>
	<path class="st0" d="M106.5,4.5c-0.3,0.1-0.5,0.3-0.8,0.4c-0.3,0.2-0.5,0.4-0.8,0.6c-0.2,0.2-0.4,0.5-0.6,0.7
	c-0.2,0.2-0.4,0.5-0.5,0.8l-4.1,7.2c-0.2,0.3-0.3,0.6-0.4,1c-0.1,0.2-0.1,0.5,0,0.7c0.1,0.2,0.2,0.3,0.4,0.4c0.2,0.1,0.5,0.1,0.8,0
	h0.1l0.2,0l0.2,0c0,0,0.1-0.1,0.2-0.1c0.3-0.1,0.6-0.3,0.8-0.5c0.3-0.2,0.6-0.4,0.8-0.7c0.3-0.2,0.5-0.5,0.7-0.8
	c0.2-0.3,0.4-0.6,0.6-0.9L108,6c0.1-0.3,0.2-0.5,0.3-0.8c0-0.2,0-0.4-0.1-0.6c-0.1-0.2-0.2-0.3-0.4-0.3c-0.2-0.1-0.5-0.1-0.7,0
	c0,0-0.1,0-0.1,0l-0.2,0.1c-0.1,0-0.1,0-0.1,0L106.5,4.5z"/>
	<path class="st0" d="M25,54.6c-0.2,0.1-0.4,0.2-0.5,0.3c-0.2,0.1-0.3,0.2-0.5,0.3c-0.1,0.1-0.3,0.2-0.4,0.3
	c-0.1,0.1-0.2,0.2-0.3,0.3c-0.2,0.2-0.3,0.4-0.3,0.6c0,0.2,0,0.3,0.2,0.5c0.2,0.2,0.4,0.3,0.6,0.3c0.3,0.1,0.7,0.1,1,0.1l9.6-0.7
	c0.2,0,0.5-0.1,0.7-0.1l0.8-0.2l0.7-0.2c0.2-0.1,0.5-0.2,0.7-0.3s0.4-0.2,0.6-0.3c0.2-0.1,0.4-0.2,0.5-0.3c0.2-0.1,0.3-0.2,0.4-0.3
	c0.1-0.1,0.2-0.2,0.4-0.3c0.1-0.2,0.2-0.4,0.2-0.7c0-0.2-0.1-0.4-0.3-0.5c-0.2-0.1-0.5-0.2-0.8-0.3c-0.4,0-0.8,0-1.2,0l-9.6,0.9
	L26.9,54c-0.2,0-0.5,0.1-0.7,0.2s-0.4,0.1-0.6,0.2C25.4,54.4,25.2,54.5,25,54.6z"/>
	<path class="st0" d="M139,0.6L138.2,1c-0.3,0.2-0.6,0.3-0.9,0.5c-0.3,0.2-0.6,0.4-0.8,0.6c-0.3,0.2-0.5,0.4-0.8,0.6l-10.5,8.8
	c-0.4,0.4-0.8,0.7-1.2,1.2c-0.3,0.3-0.5,0.6-0.7,1c-0.1,0.2-0.2,0.5-0.1,0.7c0.1,0.2,0.3,0.3,0.5,0.4c0.1,0,0.3,0,0.4,0
	c0.2,0,0.4-0.1,0.5-0.1c0.2,0,0.4-0.1,0.6-0.2c0.2-0.1,0.4-0.2,0.6-0.2c0.3-0.1,0.6-0.3,0.9-0.4s0.6-0.3,0.9-0.5s0.6-0.4,0.9-0.6
	s0.6-0.4,0.9-0.7l10.7-9c0.4-0.3,0.8-0.7,1.1-1.1c0.2-0.3,0.4-0.6,0.6-0.9c0.1-0.2,0.1-0.4,0-0.6c-0.1-0.2-0.3-0.2-0.6-0.2
	c-0.1,0-0.3,0-0.4,0l-0.5,0.1l-0.6,0.2L139,0.6z"/>
	<path class="st0" d="M24.6,74.6L24.6,74.6L24.6,74.6L24.6,74.6L24.6,74.6L10.2,81c-0.6,0.3-1.3,0.6-1.9,1c-0.6,0.3-1.2,0.7-1.8,1.1
	c-0.4,0.3-0.9,0.6-1.3,1c-0.3,0.3-0.5,0.6-0.7,1c-0.1,0.3-0.1,0.5,0,0.6C4.7,86,5,86.1,5.2,86c0.4,0,0.9-0.1,1.3-0.2
	c0.6-0.2,1.2-0.4,1.7-0.6h0.1l0,0l14.8-6.5c0.7-0.3,1.4-0.6,2-1c0.6-0.3,1.2-0.7,1.7-1.1c0.4-0.3,0.9-0.7,1.2-1.1
	c0.3-0.3,0.5-0.6,0.6-1c0.1-0.2,0-0.5-0.2-0.6c-0.3-0.1-0.6-0.2-0.9-0.2c-0.5,0-0.9,0.1-1.4,0.2C25.8,74.2,25.2,74.3,24.6,74.6z"/>
	<path class="st0" d="M167.6,9.9L167.6,9.9L167.6,9.9h-0.1l0,0L148,18.5c-0.8,0.3-1.6,0.7-2.3,1.2c-0.6,0.3-1.1,0.7-1.7,1.1
	c-0.4,0.3-0.7,0.6-0.9,1c-0.2,0.2-0.1,0.5,0.1,0.7c0.3,0.2,0.6,0.3,1,0.3c0.6,0,1.2,0,1.8-0.2c0.8-0.1,1.5-0.3,2.3-0.6
	c0.9-0.3,1.7-0.6,2.6-1h-0.1h0.1l0,0l0,0l20.2-8.9c0.9-0.4,1.7-0.8,2.5-1.3c0.6-0.3,1.2-0.7,1.7-1.2c0.3-0.3,0.6-0.6,0.8-1
	c0.1-0.2,0-0.5-0.2-0.7c0,0,0,0,0,0c-0.4-0.2-0.8-0.2-1.2-0.2c-0.7,0-1.3,0.1-2,0.2c-0.8,0.2-1.6,0.4-2.4,0.7
	C169.3,9.2,168.4,9.5,167.6,9.9z"/>
	<path class="st0" d="M28.8,94.7c-0.3,0.1-0.7,0.3-1,0.5c-0.4,0.2-0.7,0.4-1.1,0.7s-0.8,0.6-1.2,0.9s-0.9,0.7-1.3,1L5.8,113.2
	c-0.8,0.7-1.6,1.4-2.4,2.2c-0.7,0.7-1.3,1.4-1.9,2.2c-0.5,0.6-0.9,1.2-1.2,1.9c-0.3,0.4-0.4,0.9-0.3,1.4c0,0.1,0.1,0.3,0.2,0.3
	c0.1,0.1,0.2,0.1,0.4,0.1c0.2,0,0.4,0,0.5,0c0.2-0.1,0.5-0.1,0.7-0.2c0.8-0.3,1.6-0.8,2.3-1.2c0.4-0.3,0.9-0.6,1.4-1s1-0.7,1.5-1.2
	l18.9-16.1c0.8-0.7,1.5-1.4,2.2-2.1c0.6-0.6,1.1-1.3,1.6-2c0.4-0.5,0.7-1,0.9-1.6c0.2-0.3,0.2-0.7,0.1-1.1c-0.1-0.1-0.1-0.2-0.3-0.2
	c-0.1-0.1-0.3-0.1-0.4-0.1c-0.2,0-0.4,0-0.6,0.1C29.3,94.5,29,94.6,28.8,94.7z"/>
	<path class="st0" d="M152.4,41.5c-0.3,0.1-0.7,0.3-1,0.5c-0.3,0.1-0.5,0.3-0.8,0.5c-0.2,0.1-0.4,0.3-0.5,0.5
	c-0.1,0.1-0.2,0.3-0.2,0.5c-0.1,0.4,0.2,0.8,0.5,1c0.5,0.3,1.1,0.6,1.7,0.7c0.9,0.2,1.8,0.3,2.6,0.3c1.1,0,2.3,0,3.4-0.1l29.9-2.5
	c0.8-0.1,1.5-0.1,2.3-0.3s1.4-0.2,2.1-0.3s1.3-0.3,1.9-0.5c0.5-0.1,1.1-0.3,1.6-0.5c0.4-0.2,0.8-0.4,1.2-0.5
	c0.3-0.2,0.6-0.4,0.8-0.6c0.2-0.1,0.4-0.3,0.5-0.6c0.1-0.2,0.2-0.4,0.1-0.6c-0.1-0.4-0.4-0.8-1-1c-0.8-0.3-1.6-0.6-2.5-0.7
	c-1.1-0.2-2.3-0.3-3.5-0.3c-1.4,0-2.7,0-4.1,0.2l-28.9,2.8c-0.6,0.1-1.2,0.2-1.8,0.2s-1.1,0.2-1.7,0.3s-1,0.3-1.5,0.4
	S152.8,41.3,152.4,41.5z"/>
	<path class="st0" d="M51.4,107.5c-0.5,0.2-1,0.5-1.4,0.9c-0.6,0.5-1.1,1-1.6,1.5c-0.6,0.7-1.1,1.3-1.6,2.1c-0.5,0.8-1.1,1.6-1.6,2.5
	l-14.9,26.8c-0.7,1.3-1.3,2.6-1.9,4c-0.5,1.1-0.9,2.3-1.1,3.5c-0.2,0.9-0.3,1.8-0.2,2.7c0,0.6,0.3,1.1,0.8,1.4
	c0.1,0,0.2,0.1,0.2,0.1c0.1,0,0.2,0,0.3,0c0.1,0,0.2,0,0.3,0l0.3-0.1c0.6-0.3,1.2-0.6,1.7-1.1c0.7-0.6,1.4-1.3,2-2
	c0.8-0.9,1.5-1.8,2.1-2.8c0.7-1,1.3-2.1,1.9-3.3l14.7-27.9c0.5-1,1-2.1,1.4-3.2c0.3-0.8,0.5-1.7,0.6-2.6c0.1-0.6,0.1-1.2-0.1-1.8
	c-0.1-0.4-0.5-0.7-0.9-0.8c-0.1,0-0.2,0-0.2,0c-0.1,0-0.2,0-0.2,0c-0.1,0-0.2,0-0.2,0.1L51.4,107.5z"/>
	<path class="st0" d="M134.3,73.8c-0.1,0-0.2,0.1-0.3,0.1c-0.1,0-0.2,0.1-0.3,0.2c-0.1,0.1-0.2,0.1-0.3,0.2c-0.1,0.1-0.2,0.1-0.2,0.2
	c-0.4,0.4-0.6,0.9-0.6,1.5c0,0.6,0.2,1.2,0.6,1.8c0.4,0.7,1,1.4,1.6,1.9c0.8,0.7,1.7,1.3,2.7,1.8L164.9,96c1.2,0.6,2.4,1.2,3.6,1.6
	c1.2,0.4,2.3,0.8,3.6,1c1.1,0.2,2.1,0.4,3.2,0.4c0.9,0,1.7-0.1,2.5-0.3c0.2,0,0.3-0.1,0.5-0.2c0.1,0,0.3-0.1,0.4-0.2
	c0.1-0.1,0.2-0.1,0.4-0.2c0.1-0.1,0.2-0.2,0.3-0.3c0.4-0.6,0.6-1.3,0.4-2.1c-0.3-0.9-0.8-1.8-1.5-2.5c-0.8-1-1.8-1.8-2.9-2.6
	c-1.2-0.9-2.6-1.7-4-2.3L143.5,75c-0.8-0.4-1.7-0.7-2.6-1c-0.8-0.3-1.7-0.4-2.5-0.5c-0.7-0.1-1.5-0.1-2.2-0.1
	C135.5,73.4,134.9,73.5,134.3,73.8z"/>
	<path class="st0" d="M93.1,101.2c-0.6,0.2-1.2,0.7-1.6,1.2c-0.5,0.6-0.9,1.4-1.1,2.1c-0.3,0.9-0.5,1.9-0.5,2.8
	c-0.1,1.1,0,2.2,0.2,3.3l4.7,29.8c0.2,1.5,0.6,3,1.1,4.4c0.4,1.2,1,2.4,1.8,3.5c0.6,0.9,1.3,1.6,2.2,2.1c0.7,0.4,1.6,0.6,2.4,0.3
	c0.9-0.3,1.6-0.9,2.1-1.7c0.6-1,1-2.1,1.2-3.3c0.3-1.4,0.4-2.8,0.4-4.3c0-1.6-0.2-3.2-0.6-4.7L99,107.3c-0.2-1-0.5-2-1-3
	c-0.4-0.8-0.9-1.5-1.4-2.1c-0.5-0.5-1.1-0.9-1.7-1.1C94.3,100.9,93.7,100.9,93.1,101.2z"/>
	<path class="st1" d="M66.5,28.7l-0.2,0.1l-0.1,0.1c0,0-0.1,0.1-0.1,0.1c-0.1,0-0.1,0.1-0.1,0.1c-0.4,0.2-0.7,0.5-1.1,0.8
	c-0.3,0.3-0.5,0.6-0.7,0.9c-0.2,0.3-0.2,0.6-0.3,0.9c0,0.3,0.1,0.6,0.2,0.8l4.1,6c0.2,0.3,0.5,0.5,0.8,0.6c0.3,0.2,0.7,0.3,1,0.3
	c0.4,0,0.8,0,1.2-0.1c0.4-0.1,0.9-0.2,1.3-0.4l0.2-0.1c0,0,0.1-0.1,0.2-0.1c0,0,0.1-0.1,0.1-0.1c0.1,0,0.1-0.1,0.2-0.1
	c0.4-0.3,0.8-0.6,1.2-1c0.3-0.3,0.5-0.7,0.7-1.1c0.1-0.4,0.2-0.7,0.2-1.1c0-0.4-0.2-0.7-0.4-1l-4.7-5.6c-0.2-0.2-0.4-0.4-0.7-0.5
	c-0.3-0.1-0.6-0.1-0.8-0.1c-0.3,0-0.7,0-1,0.1C67.3,28.4,66.9,28.5,66.5,28.7z"/>
	<path class="st1" d="M88.7,18.2c-0.4,0.2-0.8,0.4-1.1,0.7c-0.4,0.2-0.7,0.5-1,0.9c-0.3,0.3-0.6,0.6-0.8,1c-0.2,0.3-0.4,0.6-0.4,1
	l-2.3,9c-0.1,0.4-0.1,0.8,0,1.2c0.1,0.3,0.2,0.6,0.5,0.8c0.3,0.2,0.6,0.3,1,0.4c0.5,0,0.9,0,1.4-0.2h0.2l0.1-0.1h0.1l0.2-0.1
	c0.5-0.2,0.9-0.5,1.3-0.8c0.4-0.3,0.8-0.6,1.1-1c0.3-0.4,0.6-0.8,0.8-1.2c0.2-0.4,0.4-0.8,0.5-1.2l1.7-9c0.1-0.3,0.1-0.7,0-1
	c-0.1-0.3-0.3-0.5-0.6-0.6c-0.3-0.1-0.6-0.2-0.9-0.2c-0.4,0-0.8,0.1-1.2,0.2h-0.1l-0.1,0.1c0,0-0.1,0-0.1,0.1L88.7,18.2z"/>
	<path class="st1" d="M47.4,43.4c-0.2,0.1-0.4,0.2-0.5,0.3l-0.5,0.3c-0.2,0.1-0.3,0.2-0.4,0.3c-0.2,0.1-0.3,0.2-0.4,0.4
	c-0.3,0.3-0.5,0.6-0.7,1c-0.1,0.3-0.2,0.6-0.2,0.9c0,0.3,0.2,0.5,0.4,0.7c0.3,0.2,0.6,0.3,1,0.4l10.3,1.7c0.3,0.1,0.7,0.1,1,0.1
	c0.4,0,0.7,0,1.1-0.1c0.4-0.1,0.7-0.1,1.1-0.3c0.4-0.1,0.7-0.2,1.1-0.4c0.2-0.1,0.4-0.2,0.6-0.3c0.2-0.1,0.4-0.2,0.6-0.3l0.5-0.4
	l0.4-0.4c0.3-0.3,0.6-0.7,0.7-1.1c0.1-0.3,0.1-0.7,0-1c-0.1-0.3-0.3-0.6-0.6-0.7c-0.4-0.2-0.8-0.3-1.2-0.4L51,42.6
	c-0.3,0-0.6,0-0.9,0c-0.3,0-0.6,0-0.9,0.1c-0.3,0.1-0.6,0.2-0.9,0.3S47.7,43.2,47.4,43.4z"/>
	<path class="st1" d="M111.7,13.2c-0.3,0.2-0.7,0.4-1,0.6s-0.7,0.4-1,0.7c-0.3,0.2-0.7,0.5-1,0.8c-0.3,0.3-0.6,0.6-0.9,0.9l-9.4,10.8
	c-0.4,0.5-0.7,1-1,1.5c-0.2,0.4-0.3,0.8-0.4,1.2c-0.1,0.3,0.1,0.6,0.3,0.8c0.3,0.2,0.6,0.4,1,0.4c0.2,0,0.4,0,0.5,0l0.6-0.1l0.6-0.2
	l0.6-0.3c0.4-0.2,0.8-0.4,1.2-0.6s0.8-0.5,1.2-0.8c0.4-0.3,0.7-0.6,1.1-0.9c0.4-0.3,0.7-0.6,1-1l9.4-11.2c0.3-0.4,0.6-0.8,0.9-1.3
	c0.2-0.3,0.2-0.7,0.2-1c0-0.3-0.2-0.5-0.4-0.6c-0.3-0.2-0.7-0.2-1.1-0.2c-0.2,0-0.3,0-0.5,0.1l-0.5,0.1l-0.6,0.2
	C112.1,13.1,111.9,13.2,111.7,13.2z"/>
	<path class="st1" d="M34.5,60.8c-0.5,0.2-1,0.5-1.5,0.7c-0.5,0.3-0.9,0.5-1.3,0.9c-0.4,0.3-0.7,0.6-1.1,0.9
	c-0.3,0.3-0.5,0.6-0.7,0.9c-0.2,0.3-0.3,0.6-0.2,1c0.1,0.3,0.3,0.5,0.5,0.7c0.4,0.2,0.8,0.2,1.2,0.2c0.6,0,1.2-0.1,1.8-0.3l15.9-4.2
	l0.5-0.2l0.5-0.2c0.2-0.1,0.3-0.1,0.5-0.2l0.5-0.2c0.6-0.2,1.1-0.5,1.6-0.8c0.5-0.3,1-0.6,1.4-0.9c0.4-0.3,0.8-0.6,1.1-1
	c0.3-0.3,0.5-0.6,0.6-1c0.2-0.3,0.2-0.7,0-1c-0.2-0.3-0.5-0.5-0.8-0.6c-0.5-0.1-1-0.2-1.4-0.1c-0.7,0.1-1.3,0.2-1.9,0.3l-15.4,4.4
	c-0.2,0-0.3,0.1-0.4,0.1c-0.2,0-0.3,0.1-0.4,0.1c-0.2,0-0.3,0.1-0.4,0.2L34.5,60.8z"/>
	<path class="st1" d="M131.5,16.6l-0.6,0.3c-0.2,0.1-0.4,0.2-0.6,0.3c-0.2,0.1-0.4,0.2-0.6,0.4s-0.4,0.2-0.6,0.3l-17.3,10.7
	c-0.7,0.4-1.4,0.9-2.1,1.5c-0.5,0.4-1,0.9-1.4,1.5c-0.3,0.4-0.5,0.8-0.6,1.2c-0.1,0.3,0.1,0.7,0.4,0.9c0.3,0.2,0.6,0.3,0.9,0.3
	c0.4,0,0.9,0,1.3,0c0.6-0.1,1.1-0.2,1.6-0.4c0.6-0.2,1.2-0.4,1.8-0.7l0.6-0.3l0.6-0.3c0.2-0.1,0.4-0.2,0.7-0.3l0.6-0.4l18.1-11.4
	c0.7-0.4,1.4-0.9,2.1-1.5c0.5-0.4,0.9-0.9,1.2-1.4c0.2-0.3,0.4-0.7,0.3-1.1c-0.1-0.3-0.3-0.6-0.6-0.7c-0.3-0.1-0.7-0.2-1.1-0.2
	c-0.5,0-0.9,0.1-1.4,0.2c-0.6,0.1-1.1,0.3-1.7,0.4C132.6,16.1,132.1,16.3,131.5,16.6z"/>
	<path class="st1" d="M50.7,66.8L50.1,67c-0.2,0.1-0.4,0.2-0.6,0.3c-0.2,0.1-0.4,0.2-0.6,0.3c-0.2,0.1-0.4,0.3-0.6,0.4L29.6,79.6
	c-0.8,0.5-1.6,1.1-2.4,1.7c-0.7,0.6-1.3,1.2-1.9,1.8c-0.5,0.5-0.9,1.1-1.3,1.8c-0.3,0.4-0.4,0.9-0.5,1.4c0,0.3,0.1,0.5,0.3,0.7
	c0.2,0.2,0.5,0.3,0.8,0.3c0.4,0,0.8,0,1.2-0.1c0.5-0.1,1.1-0.3,1.6-0.5c0.2-0.1,0.4-0.2,0.6-0.3l0.6-0.3l0.7-0.4
	c0.2-0.1,0.4-0.2,0.7-0.4l19.6-12.2c0.8-0.5,1.7-1.1,2.4-1.8c0.6-0.5,1.3-1.1,1.8-1.8c0.4-0.5,0.8-1,1.1-1.6
	c0.2-0.4,0.3-0.8,0.1-1.3c-0.1-0.2-0.3-0.4-0.5-0.5c-0.3-0.1-0.7-0.2-1-0.2c-0.5,0-0.9,0.1-1.3,0.2C51.7,66.4,51.2,66.6,50.7,66.8z"/>
	<path class="st1" d="M116.8,37.7c-0.6,0.3-1.3,0.6-1.9,0.9c-0.5,0.3-1,0.6-1.5,1c-0.4,0.3-0.7,0.7-1,1.1c-0.2,0.3-0.4,0.6-0.4,1
	c0,0.4,0.2,0.8,0.6,1c0.5,0.3,1.1,0.5,1.6,0.5c0.8,0.1,1.6,0.1,2.4,0c1-0.1,2-0.3,3-0.6l25.4-6.7l0.8-0.2c0.3-0.1,0.5-0.2,0.8-0.2
	l0.7-0.3c0.2-0.1,0.5-0.2,0.7-0.3c0.8-0.3,1.5-0.7,2.2-1.1c0.6-0.3,1.1-0.7,1.6-1.2c0.4-0.3,0.7-0.7,0.9-1.1c0.2-0.3,0.2-0.7,0.1-1
	c-0.2-0.5-0.6-0.9-1.1-1c-0.7-0.2-1.4-0.4-2.1-0.4c-1,0-1.9,0-2.9,0.1c-1.1,0.2-2.2,0.4-3.3,0.7l-24.1,6.8c-0.2,0.1-0.5,0.1-0.7,0.2
	l-0.7,0.2c-0.2,0.1-0.4,0.2-0.7,0.2S117.1,37.6,116.8,37.7z"/>
	<path class="st1" d="M59.8,73.4c-0.5,0.2-0.9,0.4-1.4,0.7c-0.5,0.3-1,0.6-1.4,1s-1,0.8-1.5,1.2s-0.9,0.9-1.4,1.5L37.2,97.2
	c-0.8,0.9-1.5,1.8-2.1,2.8c-0.5,0.8-1,1.7-1.3,2.6c-0.3,0.7-0.4,1.4-0.4,2.2c0,0.5,0.2,1,0.6,1.4c0.2,0.1,0.3,0.2,0.5,0.2
	c0.2,0,0.4,0.1,0.6,0.1c0.2,0,0.5-0.1,0.7-0.1c0.3-0.1,0.5-0.1,0.8-0.2c0.5-0.2,1.1-0.5,1.6-0.8c0.6-0.3,1.2-0.7,1.7-1.2
	c0.6-0.4,1.1-1,1.7-1.5c0.6-0.6,1.1-1.2,1.6-1.8l17.3-20.6c0.7-0.8,1.2-1.6,1.8-2.5c0.4-0.7,0.7-1.4,0.9-2.2c0.2-0.5,0.2-1.1,0-1.6
	c-0.1-0.4-0.4-0.8-0.9-0.9C62,73,61.9,73,61.7,73c-0.2,0-0.4,0-0.6,0c-0.2,0-0.4,0.1-0.6,0.2C60.2,73.2,60,73.3,59.8,73.4z"/>
	<path class="st1" d="M110.1,51.8c-0.3,0.1-0.6,0.2-0.8,0.4c-0.3,0.1-0.5,0.3-0.7,0.4c-0.2,0.1-0.4,0.3-0.6,0.5
	c-0.2,0.2-0.4,0.4-0.5,0.6c-0.3,0.4-0.5,1-0.5,1.5c0,0.5,0.2,1,0.6,1.4c0.5,0.5,1,0.9,1.6,1.2c0.8,0.4,1.7,0.6,2.5,0.8l25.1,4.2
	c0.8,0.2,1.6,0.2,2.4,0.3c0.8,0,1.6,0,2.4-0.1c0.8-0.1,1.5-0.2,2.2-0.3c0.7-0.1,1.3-0.3,2-0.6c0.4-0.1,0.7-0.3,1-0.5
	c0.3-0.2,0.6-0.3,0.9-0.6c0.3-0.2,0.5-0.4,0.7-0.6c0.2-0.2,0.3-0.4,0.5-0.7c0.3-0.6,0.4-1.3,0.2-1.9c-0.3-0.7-0.7-1.3-1.3-1.7
	c-0.8-0.6-1.6-1-2.5-1.3c-1.1-0.4-2.2-0.7-3.4-0.8L117,51c-0.6-0.1-1.2-0.1-1.9-0.1c-0.6,0-1.2,0-1.8,0.1c-0.6,0.1-1.1,0.2-1.7,0.3
	C111.2,51.5,110.6,51.6,110.1,51.8z"/>
	<path class="st1" d="M75.9,73.4c-0.6,0.3-1.2,0.6-1.8,1.1c-0.6,0.5-1.2,1-1.6,1.7c-0.5,0.7-1,1.3-1.4,2.1c-0.4,0.8-0.7,1.6-0.9,2.4
	l-6,23.3c-0.3,1.1-0.5,2.2-0.4,3.4c0,0.9,0.1,1.9,0.5,2.8c0.3,0.7,0.7,1.3,1.4,1.8c0.6,0.4,1.4,0.6,2.1,0.5c0.1,0,0.2,0,0.3,0
	l0.3-0.1l0.2-0.1l0.3-0.1c0.8-0.3,1.6-0.8,2.2-1.4c0.8-0.7,1.4-1.4,2-2.3c1.3-1.9,2.2-4,2.6-6.2l4.7-23.7c0.2-0.8,0.2-1.7,0.1-2.5
	c-0.1-0.7-0.3-1.3-0.7-1.8c-0.3-0.5-0.8-0.8-1.3-1c-0.6-0.2-1.2-0.3-1.7-0.1h-0.2c-0.1,0-0.1,0-0.2,0.1l-0.2,0.1L75.9,73.4z"/>
	<path class="st1" d="M95,65.4l-0.2,0.1c-0.1,0-0.2,0.1-0.2,0.1l-0.2,0.1c-0.1,0-0.2,0.1-0.2,0.1c-1.2,0.8-2.1,2-2.4,3.4
	c-0.2,0.7-0.2,1.4,0,2.1c0.2,0.8,0.5,1.5,0.9,2.1l12.1,17.5c0.6,0.8,1.2,1.5,2,2.1c0.7,0.6,1.6,1.1,2.4,1.4c0.9,0.3,1.8,0.5,2.7,0.6
	c0.9,0,1.8-0.1,2.6-0.4c0.1-0.1,0.2-0.1,0.3-0.2c0.1,0,0.2-0.1,0.3-0.2c0.1,0,0.2-0.1,0.3-0.1s0.2-0.1,0.3-0.2
	c0.8-0.5,1.5-1.2,1.9-2.1c0.4-0.8,0.7-1.8,0.7-2.7c0-1-0.1-2-0.5-2.9c-0.4-1-0.9-2-1.6-2.8l-13.7-16.3c-0.5-0.5-1-1-1.6-1.4
	c-0.6-0.4-1.2-0.6-1.9-0.8c-0.7-0.2-1.3-0.2-2-0.2C96.3,65,95.6,65.1,95,65.4z"/>
</svg>
