<?xml version="1.0" encoding="UTF-8" standalone="no"?>
<svg
   viewBox="0 0 340 238"
   version="1.1"
   id="svg69"
   sodipodi:docname="logo-th-ab-logo-only.svg"
   width="340"
   height="238"
   inkscape:version="1.4.2 (f4327f4, 2025-05-13)"
   xmlns:inkscape="http://www.inkscape.org/namespaces/inkscape"
   xmlns:sodipodi="http://sodipodi.sourceforge.net/DTD/sodipodi-0.dtd"
   xmlns="http://www.w3.org/2000/svg"
   xmlns:svg="http://www.w3.org/2000/svg"
   xmlns:rdf="http://www.w3.org/1999/02/22-rdf-syntax-ns#"
   xmlns:cc="http://creativecommons.org/ns#"
   xmlns:dc="http://purl.org/dc/elements/1.1/">
  <sodipodi:namedview
     id="namedview69"
     pagecolor="#ffffff"
     bordercolor="#000000"
     borderopacity="0.25"
     inkscape:showpageshadow="2"
     inkscape:pageopacity="0.0"
     inkscape:pagecheckerboard="0"
     inkscape:deskcolor="#d1d1d1"
     inkscape:zoom="2.961474"
     inkscape:cx="186.39367"
     inkscape:cy="119.02856"
     inkscape:window-width="1920"
     inkscape:window-height="1046"
     inkscape:window-x="-11"
     inkscape:window-y="-11"
     inkscape:window-maximized="1"
     inkscape:current-layer="svg69" />
  <defs
     id="defs1">
    <style
       id="style1">.cls-1{fill:#83d0f0;}.cls-2{fill:#5e5e5e;}.cls-3{fill:#009ee0;}</style>
  </defs>
  <title
     id="title1">Claim_Slogan_Pfade</title>
  <path
     class="cls-1"
     d="m 205.26,28.67 a 3.7,3.7 0 0 0 -0.72,0.46 3.24,3.24 0 0 0 -0.56,0.62 2.24,2.24 0 0 0 -0.33,0.7 1.44,1.44 0 0 0 -0.07,0.67 l 0.74,5.25 a 1.65,1.65 0 0 0 0.24,0.63 1.4,1.4 0 0 0 0.55,0.38 1.61,1.61 0 0 0 0.72,0.1 2.26,2.26 0 0 0 0.82,-0.23 3.27,3.27 0 0 0 0.81,-0.54 2.87,2.87 0 0 0 0.59,-0.73 2.45,2.45 0 0 0 0.34,-0.8 2,2 0 0 0 0.05,-0.77 l -1.05,-5.12 a 1,1 0 0 0 -0.25,-0.52 1.12,1.12 0 0 0 -0.49,-0.3 1.79,1.79 0 0 0 -0.66,0 1.77,1.77 0 0 0 -0.73,0.2 z"
     id="path1" />
  <path
     class="cls-1"
     d="m 177.71,45.46 a 0.5,0.5 0 0 1 -0.15,0.08 l -0.13,0.08 c -0.05,0 -0.08,0.06 -0.13,0.07 a 1.5,1.5 0 0 0 -0.13,0.11 2,2 0 0 0 -0.55,0.54 1.37,1.37 0 0 0 -0.21,0.57 0.94,0.94 0 0 0 0.1,0.55 1.1,1.1 0 0 0 0.46,0.41 l 5,2.78 a 2.19,2.19 0 0 0 0.68,0.23 3.28,3.28 0 0 0 0.78,0.08 6.82,6.82 0 0 0 0.79,-0.09 4.31,4.31 0 0 0 0.79,-0.28 l 0.17,-0.08 0.15,-0.08 0.16,-0.1 a 0.5,0.5 0 0 0 0.14,-0.1 2.58,2.58 0 0 0 0.58,-0.63 1.47,1.47 0 0 0 0.17,-0.66 1.07,1.07 0 0 0 -0.2,-0.58 1.67,1.67 0 0 0 -0.57,-0.47 l -5.25,-2.57 a 1.93,1.93 0 0 0 -0.6,-0.18 3,3 0 0 0 -0.68,0 3.54,3.54 0 0 0 -0.71,0.13 2.94,2.94 0 0 0 -0.66,0.19 z"
     id="path2" />
  <path
     class="cls-1"
     d="m 235.79,17.32 a 4.52,4.52 0 0 0 -0.76,0.44 6.77,6.77 0 0 0 -0.76,0.59 8.47,8.47 0 0 0 -0.63,0.7 4.73,4.73 0 0 0 -0.53,0.76 L 229,27.05 a 2.86,2.86 0 0 0 -0.37,0.95 1.19,1.19 0 0 0 0,0.7 0.69,0.69 0 0 0 0.39,0.41 1.33,1.33 0 0 0 0.75,0 h 0.15 l 0.16,-0.05 0.19,-0.05 a 0.34,0.34 0 0 1 0.16,-0.08 5.38,5.38 0 0 0 0.83,-0.5 c 0.27,-0.2 0.56,-0.43 0.83,-0.67 a 7.76,7.76 0 0 0 0.72,-0.8 3.89,3.89 0 0 0 0.55,-0.86 l 3.92,-7.3 a 3.07,3.07 0 0 0 0.3,-0.84 0.84,0.84 0 0 0 -0.06,-0.58 0.61,0.61 0 0 0 -0.4,-0.3 1.68,1.68 0 0 0 -0.73,0 0.74,0.74 0 0 0 -0.14,0 l -0.16,0.06 c -0.05,0 -0.1,0 -0.14,0 z"
     id="path3" />
  <path
     class="cls-1"
     d="m 154.26,67.43 a 5.36,5.36 0 0 0 -0.54,0.26 c -0.17,0.09 -0.32,0.2 -0.47,0.29 a 4.24,4.24 0 0 0 -0.4,0.31 1.35,1.35 0 0 0 -0.32,0.31 1.21,1.21 0 0 0 -0.34,0.62 0.53,0.53 0 0 0 0.16,0.46 1.2,1.2 0 0 0 0.64,0.3 5.18,5.18 0 0 0 1,0.06 l 9.65,-0.74 c 0.24,0 0.48,-0.06 0.74,-0.1 l 0.75,-0.17 0.74,-0.23 c 0.24,-0.08 0.48,-0.2 0.7,-0.28 0.22,-0.08 0.39,-0.19 0.56,-0.29 a 2.9,2.9 0 0 0 0.52,-0.33 1.72,1.72 0 0 0 0.43,-0.32 2.85,2.85 0 0 0 0.35,-0.34 1.19,1.19 0 0 0 0.25,-0.65 0.62,0.62 0 0 0 -0.3,-0.51 1.74,1.74 0 0 0 -0.75,-0.26 5.12,5.12 0 0 0 -1.19,0 l -9.6,0.89 -0.65,0.1 c -0.23,0 -0.46,0.1 -0.68,0.16 -0.22,0.06 -0.44,0.13 -0.65,0.21 a 3.85,3.85 0 0 0 -0.6,0.25 z"
     id="path4" />
  <path
     class="cls-1"
     d="m 268.35,13.42 -0.81,0.42 c -0.31,0.16 -0.57,0.32 -0.85,0.49 a 9.49,9.49 0 0 0 -0.83,0.58 c -0.28,0.19 -0.53,0.39 -0.8,0.61 l -10.51,8.81 a 12.72,12.72 0 0 0 -1.22,1.16 5.19,5.19 0 0 0 -0.7,1 1,1 0 0 0 -0.11,0.72 0.57,0.57 0 0 0 0.51,0.35 2,2 0 0 0 0.42,0 3.89,3.89 0 0 0 0.54,-0.1 3.51,3.51 0 0 0 0.6,-0.2 5.36,5.36 0 0 0 0.65,-0.25 c 0.28,-0.13 0.57,-0.28 0.87,-0.44 0.3,-0.16 0.6,-0.33 0.91,-0.53 0.31,-0.2 0.59,-0.39 0.88,-0.61 0.29,-0.22 0.58,-0.44 0.85,-0.67 l 10.68,-9 a 8,8 0 0 0 1.13,-1.13 3.6,3.6 0 0 0 0.6,-0.91 0.68,0.68 0 0 0 0,-0.63 c -0.08,-0.16 -0.29,-0.23 -0.62,-0.24 a 2.08,2.08 0 0 0 -0.41,0 l -0.53,0.12 -0.6,0.19 z"
     id="path5" />
  <path
     class="cls-1"
     d="m 153.9,87.44 v 0 c 0,0 0,0 0,0 0,0 0,0 0,0 v 0 l -14.44,6.41 a 16.21,16.21 0 0 0 -1.85,1 14.85,14.85 0 0 0 -1.8,1.15 11.13,11.13 0 0 0 -1.26,1 3.32,3.32 0 0 0 -0.7,1 c -0.12,0.28 -0.11,0.5 0,0.64 a 0.83,0.83 0 0 0 0.68,0.24 4.82,4.82 0 0 0 1.27,-0.17 17.21,17.21 0 0 0 1.73,-0.62 h 0.1 c 0,0 0,0 0,0 l 14.83,-6.54 a 21.54,21.54 0 0 0 2,-1 17.91,17.91 0 0 0 1.7,-1.13 8.16,8.16 0 0 0 1.23,-1.11 2.41,2.41 0 0 0 0.61,-1 0.5,0.5 0 0 0 -0.16,-0.59 1.49,1.49 0 0 0 -0.85,-0.18 8,8 0 0 0 -1.36,0.24 c -0.48,0.22 -1.09,0.38 -1.73,0.66 z"
     id="path6" />
  <path
     class="cls-1"
     d="m 296.86,22.74 h -0.07 v 0 c 0,0 -0.05,0 -0.05,0 0,0 0,0 0,0 l -19.43,8.64 a 20.39,20.39 0 0 0 -2.3,1.18 11.67,11.67 0 0 0 -1.67,1.14 3.76,3.76 0 0 0 -0.91,1 0.54,0.54 0 0 0 0.07,0.73 1.52,1.52 0 0 0 1,0.31 8.5,8.5 0 0 0 1.75,-0.16 18.64,18.64 0 0 0 2.28,-0.58 26.43,26.43 0 0 0 2.57,-1 h -0.1 0.06 v 0 c 0,0 0,0 0,0 l 20.17,-8.9 a 23,23 0 0 0 2.49,-1.26 10.44,10.44 0 0 0 1.71,-1.2 2.8,2.8 0 0 0 0.81,-1 0.5,0.5 0 0 0 -0.26,-0.68 2.36,2.36 0 0 0 -1.25,-0.2 12,12 0 0 0 -2,0.25 23.57,23.57 0 0 0 -2.43,0.66 c -0.7,0.33 -1.58,0.7 -2.44,1.07 z"
     id="path7" />
  <path
     class="cls-1"
     d="m 158.12,107.53 a 6.93,6.93 0 0 0 -1,0.48 c -0.37,0.19 -0.74,0.42 -1.14,0.67 -0.4,0.25 -0.81,0.55 -1.24,0.86 -0.43,0.31 -0.87,0.67 -1.3,1 L 135.15,126 a 27.09,27.09 0 0 0 -2.4,2.21 23.71,23.71 0 0 0 -1.9,2.16 11.5,11.5 0 0 0 -1.21,1.87 2.18,2.18 0 0 0 -0.33,1.35 0.48,0.48 0 0 0 0.19,0.33 0.66,0.66 0 0 0 0.38,0.15 1.47,1.47 0 0 0 0.54,0 5.6,5.6 0 0 0 0.73,-0.21 13.54,13.54 0 0 0 2.3,-1.25 c 0.44,-0.29 0.91,-0.6 1.37,-1 0.46,-0.4 1,-0.74 1.46,-1.17 l 18.94,-16.12 a 26.44,26.44 0 0 0 2.21,-2.11 19,19 0 0 0 1.65,-2 7.57,7.57 0 0 0 0.93,-1.61 1.24,1.24 0 0 0 0.07,-1.07 0.43,0.43 0 0 0 -0.26,-0.22 0.87,0.87 0 0 0 -0.44,-0.08 2.22,2.22 0 0 0 -0.58,0.09 6.07,6.07 0 0 0 -0.68,0.21 z"
     id="path8" />
  <path
     class="cls-1"
     d="m 281.71,54.3 c -0.33,0.14 -0.67,0.3 -0.95,0.45 a 8.19,8.19 0 0 0 -0.75,0.47 1.89,1.89 0 0 0 -0.48,0.51 0.94,0.94 0 0 0 -0.23,0.5 1,1 0 0 0 0.51,1 4.57,4.57 0 0 0 1.67,0.67 17.82,17.82 0 0 0 2.65,0.35 27.13,27.13 0 0 0 3.44,-0.08 l 29.85,-2.45 c 0.79,-0.06 1.54,-0.14 2.28,-0.26 0.74,-0.12 1.44,-0.21 2.12,-0.35 0.68,-0.14 1.31,-0.3 1.89,-0.46 a 15.43,15.43 0 0 0 1.62,-0.53 c 0.43,-0.17 0.82,-0.36 1.16,-0.52 a 5.54,5.54 0 0 0 0.84,-0.58 1.73,1.73 0 0 0 0.51,-0.56 0.87,0.87 0 0 0 0.13,-0.57 c -0.07,-0.41 -0.44,-0.76 -1.05,-1 a 9.26,9.26 0 0 0 -2.48,-0.68 23.37,23.37 0 0 0 -3.46,-0.26 33.81,33.81 0 0 0 -4.07,0.17 l -28.85,2.84 c -0.62,0.07 -1.24,0.15 -1.83,0.24 -0.59,0.09 -1.15,0.2 -1.68,0.32 -0.53,0.12 -1.05,0.26 -1.51,0.41 -0.46,0.15 -0.93,0.21 -1.33,0.37 z"
     id="path9" />
  <path
     class="cls-1"
     d="m 180.72,120.32 a 5.13,5.13 0 0 0 -1.41,0.86 12.69,12.69 0 0 0 -1.61,1.5 24.75,24.75 0 0 0 -1.65,2.06 c -0.53,0.78 -1.07,1.6 -1.56,2.5 L 159.6,154 a 34.37,34.37 0 0 0 -1.89,4 22.05,22.05 0 0 0 -1.13,3.51 8,8 0 0 0 -0.23,2.66 1.7,1.7 0 0 0 0.78,1.42 0.82,0.82 0 0 0 0.25,0.06 1.15,1.15 0 0 0 0.26,0 1,1 0 0 0 0.3,0 l 0.32,-0.07 a 5.94,5.94 0 0 0 1.72,-1.06 15.18,15.18 0 0 0 2,-2 25.11,25.11 0 0 0 2.08,-2.76 c 0.66,-1 1.33,-2.12 1.95,-3.27 l 14.68,-27.88 a 24.16,24.16 0 0 0 1.36,-3.17 11.42,11.42 0 0 0 0.63,-2.6 3.93,3.93 0 0 0 -0.1,-1.83 1.14,1.14 0 0 0 -0.87,-0.78 1.2,1.2 0 0 1 -0.24,0 1.43,1.43 0 0 1 -0.23,0 c -0.07,0 -0.16,0 -0.24,0.06 z"
     id="path10" />
  <path
     class="cls-1"
     d="m 263.58,86.59 a 1.64,1.64 0 0 0 -0.33,0.14 c -0.12,0 -0.21,0.11 -0.31,0.16 a 2.92,2.92 0 0 1 -0.28,0.21 c -0.08,0.07 -0.17,0.13 -0.25,0.21 a 2,2 0 0 0 -0.58,1.47 3.22,3.22 0 0 0 0.58,1.75 8,8 0 0 0 1.65,1.9 16.33,16.33 0 0 0 2.69,1.81 l 27.41,14.55 a 28.58,28.58 0 0 0 3.6,1.61 24.4,24.4 0 0 0 3.56,1 15.87,15.87 0 0 0 3.22,0.36 7.68,7.68 0 0 0 2.54,-0.33 1.89,1.89 0 0 0 0.45,-0.2 1.25,1.25 0 0 0 0.4,-0.21 2.25,2.25 0 0 0 0.36,-0.24 2.62,2.62 0 0 0 0.28,-0.3 2.33,2.33 0 0 0 0.36,-2.05 6.35,6.35 0 0 0 -1.45,-2.5 15,15 0 0 0 -2.87,-2.57 24.18,24.18 0 0 0 -3.95,-2.31 L 272.77,87.86 a 16.7,16.7 0 0 0 -2.63,-1 15.3,15.3 0 0 0 -2.51,-0.54 10.6,10.6 0 0 0 -2.22,-0.09 5.88,5.88 0 0 0 -1.83,0.36 z"
     id="path11" />
  <path
     class="cls-1"
     d="m 222.43,114 a 3.54,3.54 0 0 0 -1.56,1.22 7.18,7.18 0 0 0 -1.1,2.14 12.8,12.8 0 0 0 -0.54,2.83 15.43,15.43 0 0 0 0.17,3.29 l 4.7,29.83 a 21.83,21.83 0 0 0 1.13,4.44 15.5,15.5 0 0 0 1.77,3.48 7,7 0 0 0 2.22,2.15 2.84,2.84 0 0 0 2.35,0.33 3.94,3.94 0 0 0 2.05,-1.72 10.35,10.35 0 0 0 1.25,-3.31 18.52,18.52 0 0 0 0.39,-4.27 24.52,24.52 0 0 0 -0.55,-4.71 l -6.37,-29.57 a 12.11,12.11 0 0 0 -1,-3 8.41,8.41 0 0 0 -1.45,-2.11 4.11,4.11 0 0 0 -1.7,-1.1 2.7,2.7 0 0 0 -1.76,0.08 z"
     id="path12" />
  <path
     class="cls-2"
     d="m 25.15,215.9 a 1.06,1.06 0 0 0 -0.78,0.3 1.14,1.14 0 0 0 -0.26,0.76 v 7.28 a 1.79,1.79 0 0 1 -0.51,1.26 1.67,1.67 0 0 1 -1.23,0.52 h -2 a 1.6,1.6 0 0 1 -1.23,-0.53 1.75,1.75 0 0 1 -0.51,-1.25 V 217 a 1.09,1.09 0 0 0 -0.28,-0.76 1,1 0 0 0 -0.74,-0.3 1.14,1.14 0 0 0 -0.78,0.26 1.05,1.05 0 0 0 -0.32,0.8 v 7.28 a 3.86,3.86 0 0 0 1.15,2.72 3.82,3.82 0 0 0 2.72,1.09 h 2 a 3.73,3.73 0 0 0 2.73,-1.09 3.78,3.78 0 0 0 1.12,-2.75 V 217 a 1,1 0 0 0 -0.31,-0.79 1.13,1.13 0 0 0 -0.77,-0.31 z m 10.32,-0.08 h -2 A 3.85,3.85 0 0 0 30.8,217 3.89,3.89 0 0 0 29.66,219.75 V 227 a 1.13,1.13 0 0 0 0.29,0.79 1,1 0 0 0 0.77,0.28 1,1 0 0 0 0.78,-0.29 1.08,1.08 0 0 0 0.28,-0.78 v -7.3 a 1.79,1.79 0 0 1 1.74,-1.7 h 2 a 1.57,1.57 0 0 1 1.19,0.51 1.6,1.6 0 0 1 0.56,1.24 V 227 a 1.11,1.11 0 0 0 0.24,0.76 1,1 0 0 0 0.77,0.31 v 0 a 1,1 0 0 0 0.77,-0.3 1.09,1.09 0 0 0 0.27,-0.77 v -7.3 a 3.72,3.72 0 0 0 -1.13,-2.7 3.83,3.83 0 0 0 -2.72,-1.18 z m 22.7,0.24 a 0.6,0.6 0 0 0 -0.27,-0.12 0.82,0.82 0 0 0 -0.4,-0.1 0.76,0.76 0 0 0 -0.5,0.16 1.11,1.11 0 0 0 -0.41,0.42 l -0.07,0.15 -2.52,7.62 -3,-7.7 a 1,1 0 0 0 -0.91,-0.65 0.93,0.93 0 0 0 -0.39,0.08 1,1 0 0 0 -0.68,0.6 v 0.21 0.32 l 0.05,0.23 4.1,10.38 a 1.12,1.12 0 0 0 0.94,0.66 h 0.1 a 1,1 0 0 0 0.63,-0.2 1.09,1.09 0 0 0 0.32,-0.52 l 3.48,-10.37 v -0.11 c 0,0 0,-0.08 0,-0.19 a 0.88,0.88 0 0 0 -0.12,-0.46 0.77,0.77 0 0 0 -0.35,-0.41 z m 8.31,-0.24 h -2 a 4.09,4.09 0 0 0 -2.75,1.11 4,4 0 0 0 -1.15,2.77 v 4.49 a 3.9,3.9 0 0 0 1.06,2.72 3.38,3.38 0 0 0 2.53,1.15 h 2.54 a 1,1 0 0 0 1.11,-1.06 1,1 0 0 0 -0.33,-0.75 1.09,1.09 0 0 0 -0.75,-0.26 h -2.53 a 1.21,1.21 0 0 1 -1,-0.47 1.78,1.78 0 0 1 -0.49,-1.25 V 223 h 4 a 3.67,3.67 0 0 0 3.6,-3.59 3.39,3.39 0 0 0 -1.17,-2.57 4,4 0 0 0 -2.67,-1.02 z m 1.32,4.62 a 1.32,1.32 0 0 1 -1.06,0.45 h -4 v -1.21 a 1.59,1.59 0 0 1 0.5,-1.2 1.82,1.82 0 0 1 1.29,-0.53 h 2 a 1.87,1.87 0 0 1 1.25,0.46 1.42,1.42 0 0 1 0.47,1 1.26,1.26 0 0 1 -0.45,1.03 z m 96.36,-4.8 h -2.49 a 1.14,1.14 0 0 0 -0.78,0.28 1.06,1.06 0 0 0 -0.32,0.81 1,1 0 0 0 0.39,0.78 1.24,1.24 0 0 0 0.71,0.19 h 2.49 a 1.29,1.29 0 0 1 1.05,0.54 1.74,1.74 0 0 1 0.48,1.22 v 1.26 h -4 a 3.42,3.42 0 0 0 -2.54,1 3.53,3.53 0 0 0 -1,2.56 3.43,3.43 0 0 0 1.11,2.52 4.07,4.07 0 0 0 2.71,1 h 2 a 3.88,3.88 0 0 0 3.83,-3.84 v -4.51 a 4,4 0 0 0 -1,-2.7 3.58,3.58 0 0 0 -2.64,-1.11 z m 1.53,8.4 a 1.45,1.45 0 0 1 -0.51,1.13 1.59,1.59 0 0 1 -1.28,0.6 h -2 a 1.7,1.7 0 0 1 -1.19,-0.47 1.2,1.2 0 0 1 -0.51,-1 1.43,1.43 0 0 1 0.39,-1.07 1.61,1.61 0 0 1 1.07,-0.42 h 4 z m -87.1,-8.44 h -1.67 a 3.07,3.07 0 0 0 -2.36,1.14 4,4 0 0 0 -1,2.68 v 7.32 a 1,1 0 0 0 0.33,0.79 1.14,1.14 0 0 0 0.77,0.25 v 0 a 1,1 0 0 0 0.75,-0.33 1,1 0 0 0 0.22,-0.71 v -7.3 a 2.08,2.08 0 0 1 0.43,-1.28 1,1 0 0 1 0.8,-0.48 h 1.67 a 1.17,1.17 0 0 0 0.76,-0.26 1,1 0 0 0 0.32,-0.78 1,1 0 0 0 -0.33,-0.8 1.13,1.13 0 0 0 -0.69,-0.24 z m 6.59,2.07 h 2.49 a 1.2,1.2 0 0 0 0.76,-0.23 1,1 0 0 0 0.36,-0.8 1,1 0 0 0 -0.38,-0.82 1.19,1.19 0 0 0 -0.74,-0.22 h -2.51 a 3.62,3.62 0 0 0 -2.5,1 3.52,3.52 0 0 0 -1,2.56 3.35,3.35 0 0 0 1,2.53 3.41,3.41 0 0 0 2.51,1.08 1.3,1.3 0 0 1 1,0.42 1.41,1.41 0 0 1 0,2 1.41,1.41 0 0 1 -1.07,0.45 h -2.46 a 1,1 0 0 0 -0.76,0.32 1.07,1.07 0 0 0 -0.26,0.76 1.08,1.08 0 0 0 0.27,0.74 1,1 0 0 0 0.73,0.3 h 2.54 a 3.4,3.4 0 0 0 2.55,-1.07 3.47,3.47 0 0 0 0,-5 3.4,3.4 0 0 0 -2.53,-1 1.78,1.78 0 0 1 -1.09,-0.5 1.39,1.39 0 0 1 -0.37,-1 1.57,1.57 0 0 1 0.41,-1.06 1.71,1.71 0 0 1 1.05,-0.46 z m 20,8 h -1.39 a 1.2,1.2 0 0 1 -1,-0.45 1.86,1.86 0 0 1 -0.53,-1.3 v -6.24 H 104 a 1.13,1.13 0 0 0 0.76,-0.25 1,1 0 0 0 0.32,-0.78 1,1 0 0 0 -0.33,-0.8 1.13,1.13 0 0 0 -0.75,-0.24 h -1.77 v -4 a 1.07,1.07 0 0 0 -0.21,-0.71 0.94,0.94 0 0 0 -0.78,-0.35 1.12,1.12 0 0 0 -0.77,0.27 1,1 0 0 0 -0.33,0.79 v 12.34 a 3.88,3.88 0 0 0 1.07,2.75 3.31,3.31 0 0 0 2.51,1.12 h 1.44 a 1,1 0 0 0 0.71,-0.27 1,1 0 0 0 0.32,-0.77 1,1 0 0 0 -0.3,-0.79 1,1 0 0 0 -0.69,-0.33 z M 117,215.6 a 1,1 0 0 0 -0.78,0.33 1.07,1.07 0 0 0 -0.23,0.71 1.22,1.22 0 0 0 0,0.26 v 7.26 a 1.73,1.73 0 0 1 -1.72,1.5 h -2 a 1.65,1.65 0 0 1 -1.24,-0.51 1.6,1.6 0 0 1 -0.49,-1.21 v -7.28 a 1.07,1.07 0 0 0 -0.25,-0.74 1.05,1.05 0 0 0 -0.79,-0.32 1.09,1.09 0 0 0 -0.78,0.3 1.06,1.06 0 0 0 -0.28,0.76 v 7.28 a 3.54,3.54 0 0 0 1.14,2.67 3.6,3.6 0 0 0 2.68,1.17 h 2 a 3.54,3.54 0 0 0 1.67,-0.43 4,4 0 0 1 -1,2.64 l -1.25,1.19 -0.13,0.18 a 1.18,1.18 0 0 0 -0.11,0.56 0.86,0.86 0 0 0 0.25,0.69 0.91,0.91 0 0 0 0.74,0.39 v 0 a 1,1 0 0 0 0.74,-0.29 l 1.29,-1.31 c 1.11,-1.07 1.53,-2.68 1.53,-4.75 v -10 A 1,1 0 0 0 117,215.6 Z m 18.23,0.06 a 6.23,6.23 0 0 0 -4.32,1.75 6.37,6.37 0 0 0 -1.81,4.39 5.93,5.93 0 0 0 1.79,4.29 6,6 0 0 0 4.34,1.82 v 0 a 6.08,6.08 0 0 0 6.06,-6.11 6.27,6.27 0 0 0 -1.72,-4.34 6.2,6.2 0 0 0 -4.31,-1.8 z m 2.82,8.92 a 3.8,3.8 0 0 1 -2.81,1.21 3.88,3.88 0 0 1 -2.85,-1.2 3.77,3.77 0 0 1 -1.17,-2.79 3.93,3.93 0 0 1 1.17,-2.86 3.89,3.89 0 0 1 2.85,-1.16 3.8,3.8 0 0 1 2.8,1.16 3.89,3.89 0 0 1 1.21,2.86 3.76,3.76 0 0 1 -1.17,2.78 z m 11.31,-14.07 h -1.66 a 3.45,3.45 0 0 0 -2.57,1.13 4.06,4.06 0 0 0 -1,2.73 v 12.37 a 1,1 0 0 0 0.36,0.8 1.16,1.16 0 0 0 0.76,0.24 v 0 a 1,1 0 0 0 0.71,-0.3 1.07,1.07 0 0 0 0.26,-0.74 v -9.06 H 148 a 1,1 0 0 0 0.74,-0.28 1.09,1.09 0 0 0 0.3,-0.76 1,1 0 0 0 -0.31,-0.78 1.06,1.06 0 0 0 -0.73,-0.26 h -1.79 v -1.23 a 1.79,1.79 0 0 1 0.48,-1.27 1.3,1.3 0 0 1 1,-0.5 h 1.69 a 1.08,1.08 0 0 0 0.78,-0.28 1.18,1.18 0 0 0 0,-1.5 1.08,1.08 0 0 0 -0.77,-0.31 z m 26.86,5.13 h -1.92 a 3.65,3.65 0 0 0 -2.72,1.12 3.82,3.82 0 0 0 -1.14,2.73 v 12.35 a 1.07,1.07 0 0 0 0.29,0.76 1,1 0 0 0 0.77,0.29 v 0 a 1,1 0 0 0 0.74,-0.3 1,1 0 0 0 0.28,-0.75 v -4 h 4 a 3.36,3.36 0 0 0 2.57,-1.15 3.83,3.83 0 0 0 1,-2.69 v -4.51 a 3.78,3.78 0 0 0 -1.12,-2.73 3.85,3.85 0 0 0 -2.72,-1.12 z M 178,224 a 1.59,1.59 0 0 1 -0.45,1.2 1.27,1.27 0 0 1 -1,0.57 h -4 v -6.28 a 1.68,1.68 0 0 1 0.55,-1.23 1.52,1.52 0 0 1 1.22,-0.56 h 1.95 a 1.58,1.58 0 0 1 1.25,0.54 1.64,1.64 0 0 1 0.51,1.25 z m 10.93,-8.36 H 187 a 3.64,3.64 0 0 0 -2.71,1.11 3.81,3.81 0 0 0 -1.17,2.74 v 12.35 a 1,1 0 0 0 1.06,1 1.11,1.11 0 0 0 0.76,-0.28 1,1 0 0 0 0.32,-0.77 v -4 h 4 a 3.45,3.45 0 0 0 2.55,-1.13 4,4 0 0 0 1,-2.71 v -4.51 a 3.81,3.81 0 0 0 -3.88,-3.85 z m 1.77,8.36 a 1.62,1.62 0 0 1 -0.44,1.2 1.27,1.27 0 0 1 -1,0.57 h -4 v -6.28 a 1.71,1.71 0 0 1 0.51,-1.24 1.56,1.56 0 0 1 1.23,-0.55 h 1.95 a 1.55,1.55 0 0 1 1.24,0.55 1.6,1.6 0 0 1 0.53,1.24 z m 24.34,-8.36 h -2 a 3.75,3.75 0 0 0 -2.75,1.11 3.84,3.84 0 0 0 -1.13,2.74 V 224 a 3.93,3.93 0 0 0 1,2.69 3.35,3.35 0 0 0 2.57,1.15 h 2.54 a 1,1 0 0 0 0.75,-0.3 1.1,1.1 0 0 0 0.27,-0.76 1.05,1.05 0 0 0 -0.29,-0.75 1,1 0 0 0 -0.73,-0.26 h -2.5 a 1.2,1.2 0 0 1 -1,-0.5 1.79,1.79 0 0 1 -0.54,-1.23 v -1.14 h 4 a 3.65,3.65 0 0 0 2.57,-1 3.83,3.83 0 0 0 1,-2.69 3.31,3.31 0 0 0 -1.13,-2.56 3.86,3.86 0 0 0 -2.62,-1.01 z m 1.28,4.78 a 1.58,1.58 0 0 1 -1.06,0.38 h -4 v -1.34 a 1.91,1.91 0 0 1 1.81,-1.76 h 2 a 2,2 0 0 1 1.28,0.51 1.29,1.29 0 0 1 0.49,1 2,2 0 0 1 -0.51,1.21 z m 12.85,-9.83 a 1.09,1.09 0 0 0 -0.76,0.28 1,1 0 0 0 -0.3,0.76 v 4 h -4 a 3.34,3.34 0 0 0 -2.58,1.13 3.93,3.93 0 0 0 -1,2.72 V 224 a 3.73,3.73 0 0 0 1.15,2.72 3.64,3.64 0 0 0 2.68,1.12 h 2 a 3.71,3.71 0 0 0 2.74,-1.13 3.94,3.94 0 0 0 1.07,-2.71 v -12.37 a 1,1 0 0 0 -0.24,-0.72 1.07,1.07 0 0 0 -0.75,-0.32 z M 228.12,224 a 1.6,1.6 0 0 1 -0.49,1.19 1.64,1.64 0 0 1 -1.26,0.58 h -1.94 a 1.52,1.52 0 0 1 -1.22,-0.54 1.64,1.64 0 0 1 -0.53,-1.23 v -4.51 a 2,2 0 0 1 0.48,-1.28 1.28,1.28 0 0 1 1,-0.51 h 3.93 z M 245,217.67 h 2.46 a 1.13,1.13 0 0 0 0.75,-0.24 1.08,1.08 0 0 0 0,-1.6 1.14,1.14 0 0 0 -0.74,-0.23 h -2.48 a 3.69,3.69 0 0 0 -2.53,1 3.57,3.57 0 0 0 -1.08,2.56 3.38,3.38 0 0 0 1.07,2.53 3.49,3.49 0 0 0 2.54,1.08 1.31,1.31 0 0 1 1,0.43 1.29,1.29 0 0 1 0.43,1 1.25,1.25 0 0 1 -0.42,1 1.4,1.4 0 0 1 -1,0.45 h -2.55 a 1.07,1.07 0 0 0 -0.75,0.28 1.11,1.11 0 0 0 -0.31,0.8 1,1 0 0 0 0.33,0.78 1.09,1.09 0 0 0 0.73,0.26 H 245 a 3.3,3.3 0 0 0 2.47,-1.08 3.48,3.48 0 0 0 0,-5 3.31,3.31 0 0 0 -2.48,-1 1.61,1.61 0 0 1 -1.11,-0.49 1.41,1.41 0 0 1 -0.38,-1 1.47,1.47 0 0 1 1.49,-1.51 z m 8.5,0.6 a 1.57,1.57 0 0 1 1.22,-0.57 h 4.79 a 1.14,1.14 0 0 0 0.71,-0.21 1,1 0 0 0 0.35,-0.76 1.09,1.09 0 0 0 -0.28,-0.79 1,1 0 0 0 -0.78,-0.3 h -4.79 a 3.86,3.86 0 0 0 -3.85,3.84 V 224 a 3.68,3.68 0 0 0 1.16,2.72 3.61,3.61 0 0 0 2.66,1.12 h 4.82 a 1,1 0 0 0 0.77,-0.29 1.06,1.06 0 0 0 0.29,-0.77 1,1 0 0 0 -0.32,-0.77 1.05,1.05 0 0 0 -0.74,-0.24 h -4.79 a 1.47,1.47 0 0 1 -1.18,-0.54 1.53,1.53 0 0 1 -0.57,-1.23 v -4.52 a 1.6,1.6 0 0 1 0.48,-1.21 z M 264.66,214 a 1.24,1.24 0 0 0 0.92,-0.33 1.27,1.27 0 0 0 -0.92,-2.18 1.31,1.31 0 0 0 -0.91,0.34 1.26,1.26 0 0 0 -0.37,0.91 1.28,1.28 0 0 0 0.39,1 1.31,1.31 0 0 0 0.89,0.26 z m 2,10.8 a 4.78,4.78 0 0 1 -0.91,-3.33 v -4.74 a 1.1,1.1 0 0 0 -0.27,-0.78 1,1 0 0 0 -0.77,-0.31 1.11,1.11 0 0 0 -0.79,0.29 1.09,1.09 0 0 0 -0.29,0.8 v 4.72 a 6.7,6.7 0 0 0 1.57,4.83 l 1.27,1.25 a 1.21,1.21 0 0 0 0.77,0.31 h 0.06 a 1.07,1.07 0 0 0 0.68,-0.32 0.91,0.91 0 0 0 0.29,-0.75 1.05,1.05 0 0 0 -0.24,-0.69 z m 10.12,-9.16 h -2 a 3.75,3.75 0 0 0 -2.71,1.11 3.8,3.8 0 0 0 -1.15,2.73 V 224 a 3.91,3.91 0 0 0 1,2.69 3.32,3.32 0 0 0 2.53,1.15 H 277 a 1,1 0 0 0 0.75,-0.28 1,1 0 0 0 0.31,-0.78 1,1 0 0 0 -0.33,-0.77 1.08,1.08 0 0 0 -0.73,-0.24 h -2.5 a 1.27,1.27 0 0 1 -1,-0.53 A 1.65,1.65 0 0 1 273,224 v -1.27 h 4 a 3.45,3.45 0 0 0 2.53,-1.05 3.36,3.36 0 0 0 1.05,-2.51 3.42,3.42 0 0 0 -1.12,-2.54 3.91,3.91 0 0 0 -2.71,-0.99 z m 1.31,4.62 a 1.61,1.61 0 0 1 -1.07,0.41 h -4 v -1.21 a 1.57,1.57 0 0 1 0.52,-1.2 1.54,1.54 0 0 1 1.22,-0.56 h 2 a 1.85,1.85 0 0 1 1.22,0.49 1.25,1.25 0 0 1 0.49,1 1.49,1.49 0 0 1 -0.41,1.07 z m 10.66,-4.62 h -2 a 3.7,3.7 0 0 0 -2.71,1.12 3.77,3.77 0 0 0 -1.14,2.72 v 7.3 a 1.08,1.08 0 0 0 0.33,0.8 1.13,1.13 0 0 0 0.76,0.26 v 0 a 1,1 0 0 0 0.78,-0.31 1.08,1.08 0 0 0 0.24,-0.75 v -7.3 a 1.66,1.66 0 0 1 0.55,-1.22 1.48,1.48 0 0 1 1.22,-0.56 h 2 a 1.63,1.63 0 0 1 1.2,0.56 1.73,1.73 0 0 1 0.5,1.22 v 7.3 a 1,1 0 0 0 0.3,0.78 1.08,1.08 0 0 0 0.78,0.28 1,1 0 0 0 0.76,-0.29 1.1,1.1 0 0 0 0.28,-0.77 v -7.3 a 3.79,3.79 0 0 0 -3.84,-3.84 z m 10.1,2.61 a 1.66,1.66 0 0 1 1.24,-0.55 h 4.77 a 1.25,1.25 0 0 0 0.69,-0.19 0.94,0.94 0 0 0 0.39,-0.79 1.08,1.08 0 0 0 -0.32,-0.8 1.11,1.11 0 0 0 -0.76,-0.28 h -4.77 a 3.68,3.68 0 0 0 -2.74,1.11 3.81,3.81 0 0 0 -1.1,2.74 V 224 a 3.75,3.75 0 0 0 1.1,2.71 3.67,3.67 0 0 0 2.7,1.13 h 4.81 a 1.11,1.11 0 0 0 0.75,-0.26 1,1 0 0 0 0.33,-0.8 1,1 0 0 0 -0.36,-0.79 1.1,1.1 0 0 0 -0.72,-0.22 h -4.77 a 1.61,1.61 0 0 1 -1.24,-0.56 1.58,1.58 0 0 1 -0.5,-1.21 v -4.51 a 1.7,1.7 0 0 1 0.47,-1.24 z m 16.46,-2.61 h -2 a 3.86,3.86 0 0 0 -3.86,3.85 V 224 a 4,4 0 0 0 1,2.68 3.43,3.43 0 0 0 2.58,1.16 h 2.54 a 1.11,1.11 0 0 0 0.75,-0.26 1,1 0 0 0 0.33,-0.8 1,1 0 0 0 -0.36,-0.79 1.13,1.13 0 0 0 -0.72,-0.22 H 313 a 1.25,1.25 0 0 1 -1.05,-0.54 1.65,1.65 0 0 1 -0.49,-1.19 v -1.27 h 4 a 3.56,3.56 0 0 0 2.52,-1 3.48,3.48 0 0 0 1,-2.53 3.35,3.35 0 0 0 -1.15,-2.55 3.79,3.79 0 0 0 -2.55,-1.05 z m 1.27,4.61 a 1.45,1.45 0 0 1 -1,0.42 h -4 v -1.21 a 1.56,1.56 0 0 1 0.52,-1.19 1.67,1.67 0 0 1 1.27,-0.57 h 2 a 1.75,1.75 0 0 1 1.18,0.48 1.24,1.24 0 0 1 0.5,1 1.39,1.39 0 0 1 -0.5,1.07 z m 8.61,0.4 a 1.6,1.6 0 0 1 -1.12,-0.48 1.39,1.39 0 0 1 -0.41,-1 1.52,1.52 0 0 1 0.46,-1.09 1.6,1.6 0 0 1 1.07,-0.42 h 2.51 a 1,1 0 0 0 0.72,-0.28 1,1 0 0 0 0.29,-0.75 1,1 0 0 0 -1,-1 h -2.53 a 3.77,3.77 0 0 0 -2.56,1 3.73,3.73 0 0 0 -1.07,2.57 3.59,3.59 0 0 0 1,2.52 3.54,3.54 0 0 0 2.59,1.09 1.28,1.28 0 0 1 1,0.42 1.25,1.25 0 0 1 0.45,1 1.22,1.22 0 0 1 -0.41,1 1.44,1.44 0 0 1 -1,0.46 h -2.58 a 1,1 0 0 0 -1.09,1.08 1,1 0 0 0 0.34,0.78 1.11,1.11 0 0 0 0.75,0.26 h 2.57 a 3.57,3.57 0 0 0 0,-7.13 z m -126.47,4.15 a 4.78,4.78 0 0 1 -0.91,-3.33 v -9.58 a 1.12,1.12 0 0 0 -0.26,-0.77 1.06,1.06 0 0 0 -0.77,-0.31 1,1 0 0 0 -1.09,1.08 v 9.56 a 6.7,6.7 0 0 0 1.57,4.83 l 1.28,1.25 a 1.19,1.19 0 0 0 0.76,0.31 h 0.07 a 1.09,1.09 0 0 0 0.68,-0.32 0.94,0.94 0 0 0 0.29,-0.75 1.13,1.13 0 0 0 -0.25,-0.69 z M 203.3,214 a 1.13,1.13 0 0 0 1.25,-1.26 1.26,1.26 0 0 0 -0.3,-0.88 1.38,1.38 0 0 0 -1.85,0 1.26,1.26 0 0 0 -0.37,0.91 1.24,1.24 0 0 0 0.39,1 1.31,1.31 0 0 0 0.88,0.23 z m 2,10.8 a 4.73,4.73 0 0 1 -0.91,-3.33 v -4.74 a 1.1,1.1 0 0 0 -0.27,-0.78 1,1 0 0 0 -0.77,-0.31 1.11,1.11 0 0 0 -0.79,0.29 1.09,1.09 0 0 0 -0.29,0.8 v 4.72 a 6.7,6.7 0 0 0 1.57,4.83 l 1.27,1.25 a 1.21,1.21 0 0 0 0.77,0.31 h 0.06 a 1.07,1.07 0 0 0 0.68,-0.32 0.94,0.94 0 0 0 0.29,-0.75 1.11,1.11 0 0 0 -0.24,-0.69 z M 93.84,214.17 a 1.14,1.14 0 0 0 1.25,-1.25 1.29,1.29 0 0 0 -0.31,-0.89 1.38,1.38 0 0 0 -1.84,0 1.22,1.22 0 0 0 -0.38,0.91 1.25,1.25 0 0 0 0.39,1 1.33,1.33 0 0 0 0.89,0.23 z m 2,10.81 a 4.8,4.8 0 0 1 -0.91,-3.33 v -4.75 a 1.06,1.06 0 0 0 -0.27,-0.77 1,1 0 0 0 -0.77,-0.31 1,1 0 0 0 -1.08,1.08 v 4.73 a 6.71,6.71 0 0 0 1.57,4.83 l 1.27,1.25 a 1.15,1.15 0 0 0 0.77,0.3 h 0.06 a 1.07,1.07 0 0 0 0.68,-0.32 0.88,0.88 0 0 0 0.29,-0.74 1.06,1.06 0 0 0 -0.24,-0.7 z m -52,-10.81 a 1.27,1.27 0 0 0 0.93,-0.33 1.23,1.23 0 0 0 0.32,-0.92 1.28,1.28 0 0 0 -0.3,-0.89 1.29,1.29 0 0 0 -2.22,0.89 1.22,1.22 0 0 0 0.39,1 1.31,1.31 0 0 0 0.84,0.25 z m 2,10.81 a 4.8,4.8 0 0 1 -0.91,-3.33 v -4.75 a 1.06,1.06 0 0 0 -0.27,-0.77 1,1 0 0 0 -0.77,-0.31 1,1 0 0 0 -1.08,1.08 v 4.73 a 6.71,6.71 0 0 0 1.57,4.83 l 1.27,1.25 a 1.15,1.15 0 0 0 0.77,0.3 h 0.06 a 1.07,1.07 0 0 0 0.68,-0.32 0.91,0.91 0 0 0 0.29,-0.74 1.12,1.12 0 0 0 -0.24,-0.7 z"
     id="path13" />
  <path
     class="cls-3"
     d="m 195.82,41.51 -0.16,0.06 -0.13,0.07 c 0,0 -0.1,0.06 -0.13,0.09 a 0.43,0.43 0 0 0 -0.15,0.09 4.67,4.67 0 0 0 -1.05,0.82 3.65,3.65 0 0 0 -0.69,0.94 2.34,2.34 0 0 0 -0.26,0.94 1.54,1.54 0 0 0 0.24,0.83 l 4.13,6 a 2,2 0 0 0 0.75,0.63 2.67,2.67 0 0 0 1,0.28 4.32,4.32 0 0 0 1.23,-0.06 5.44,5.44 0 0 0 1.3,-0.39 l 0.17,-0.07 a 0.83,0.83 0 0 1 0.16,-0.09 1.19,1.19 0 0 1 0.15,-0.09 0.34,0.34 0 0 0 0.17,-0.11 4.86,4.86 0 0 0 1.18,-1 4.29,4.29 0 0 0 0.73,-1.12 2.77,2.77 0 0 0 0.17,-1.1 1.83,1.83 0 0 0 -0.41,-1 l -4.69,-5.61 A 2.11,2.11 0 0 0 198.84,41.15 2.89,2.89 0 0 0 198,41 a 3.91,3.91 0 0 0 -1,0.12 4.75,4.75 0 0 0 -1.18,0.39 z"
     id="path14" />
  <path
     class="cls-3"
     d="m 218,31 a 7.9,7.9 0 0 0 -1.12,0.67 6,6 0 0 0 -1,0.86 5.6,5.6 0 0 0 -0.77,1 3.13,3.13 0 0 0 -0.44,1 l -2.31,9 a 2,2 0 0 0 0,1.16 1.3,1.3 0 0 0 0.5,0.8 1.77,1.77 0 0 0 1,0.36 4.08,4.08 0 0 0 1.36,-0.18 h 0.16 l 0.15,-0.07 h 0.15 l 0.16,-0.07 a 8.29,8.29 0 0 0 1.3,-0.78 7.5,7.5 0 0 0 1.13,-1 5.39,5.39 0 0 0 0.84,-1.19 4,4 0 0 0 0.48,-1.22 l 1.73,-8.95 a 1.44,1.44 0 0 0 0,-1 1.11,1.11 0 0 0 -0.55,-0.58 1.68,1.68 0 0 0 -0.91,-0.19 4,4 0 0 0 -1.22,0.24 h -0.13 l -0.13,0.06 a 0.53,0.53 0 0 0 -0.13,0.06 z"
     id="path15" />
  <path
     class="cls-3"
     d="m 176.68,56.19 c -0.19,0.1 -0.36,0.19 -0.54,0.27 l -0.49,0.3 a 4,4 0 0 0 -0.45,0.33 2.07,2.07 0 0 0 -0.41,0.36 3.67,3.67 0 0 0 -0.74,0.95 1.49,1.49 0 0 0 -0.16,0.87 1.08,1.08 0 0 0 0.42,0.68 2.38,2.38 0 0 0 1,0.39 l 10.27,1.74 a 6.11,6.11 0 0 0 1,0.08 c 0.35,0 0.69,0 1.05,-0.1 a 6,6 0 0 0 1.09,-0.27 7,7 0 0 0 1.08,-0.39 4.62,4.62 0 0 0 0.59,-0.29 c 0.21,-0.11 0.4,-0.23 0.59,-0.34 l 0.51,-0.37 0.43,-0.42 a 3,3 0 0 0 0.7,-1.1 1.2,1.2 0 0 0 0,-1 1.34,1.34 0 0 0 -0.65,-0.73 3.12,3.12 0 0 0 -1.24,-0.39 l -10.42,-1.3 a 4.88,4.88 0 0 0 -0.86,0 7.89,7.89 0 0 0 -0.91,0.1 c -0.3,0.07 -0.61,0.16 -0.93,0.26 -0.32,0.1 -0.61,0.25 -0.93,0.37 z"
     id="path16" />
  <path
     class="cls-3"
     d="m 241,26.06 c -0.34,0.16 -0.69,0.35 -1,0.56 -0.31,0.21 -0.7,0.43 -1,0.68 a 11.26,11.26 0 0 0 -1,0.79 c -0.3,0.28 -0.59,0.57 -0.87,0.86 l -9.44,10.83 a 8.8,8.8 0 0 0 -1,1.48 2.73,2.73 0 0 0 -0.35,1.23 0.91,0.91 0 0 0 0.3,0.85 1.55,1.55 0 0 0 1,0.36 3.4,3.4 0 0 0 0.53,0 l 0.56,-0.11 0.61,-0.18 0.64,-0.26 c 0.38,-0.18 0.76,-0.38 1.16,-0.62 0.4,-0.24 0.77,-0.49 1.16,-0.78 a 11.6,11.6 0 0 0 1.08,-0.89 8.24,8.24 0 0 0 1,-1 l 9.41,-11.22 a 6,6 0 0 0 0.85,-1.32 1.76,1.76 0 0 0 0.17,-1 0.82,0.82 0 0 0 -0.45,-0.64 1.85,1.85 0 0 0 -1.07,-0.17 2.49,2.49 0 0 0 -0.51,0.07 l -0.54,0.13 -0.55,0.19 c -0.26,0 -0.45,0.1 -0.69,0.16 z"
     id="path17" />
  <path
     class="cls-3"
     d="m 163.76,73.59 a 11.88,11.88 0 0 0 -1.47,0.74 12.73,12.73 0 0 0 -1.3,0.86 9.91,9.91 0 0 0 -1.06,0.93 4.25,4.25 0 0 0 -0.72,0.93 1.63,1.63 0 0 0 -0.25,1 1,1 0 0 0 0.54,0.66 2.69,2.69 0 0 0 1.18,0.22 8.34,8.34 0 0 0 1.8,-0.29 l 15.93,-4.23 0.52,-0.16 0.51,-0.16 a 4.34,4.34 0 0 0 0.5,-0.2 l 0.49,-0.19 a 15.38,15.38 0 0 0 1.62,-0.83 11.2,11.2 0 0 0 1.39,-0.94 6.67,6.67 0 0 0 1.09,-1 3.39,3.39 0 0 0 0.61,-1 1.12,1.12 0 0 0 0,-1 1.21,1.21 0 0 0 -0.78,-0.57 4.24,4.24 0 0 0 -1.45,-0.13 10.1,10.1 0 0 0 -1.95,0.35 L 165.52,73 a 2.23,2.23 0 0 0 -0.44,0.13 4.59,4.59 0 0 0 -0.45,0.14 c -0.16,0 -0.3,0.11 -0.45,0.17 z"
     id="path18" />
  <path
     class="cls-3"
     d="m 260.78,29.43 -0.63,0.3 a 5.59,5.59 0 0 0 -0.6,0.3 c -0.21,0.11 -0.42,0.23 -0.61,0.35 -0.19,0.12 -0.39,0.22 -0.6,0.34 l -17.29,10.74 a 17.31,17.31 0 0 0 -2.05,1.48 10.43,10.43 0 0 0 -1.36,1.46 2.73,2.73 0 0 0 -0.56,1.24 0.93,0.93 0 0 0 0.35,0.88 1.76,1.76 0 0 0 0.91,0.3 5.74,5.74 0 0 0 1.29,0 14.11,14.11 0 0 0 1.64,-0.36 17.79,17.79 0 0 0 1.79,-0.68 l 0.63,-0.28 0.62,-0.34 c 0.24,-0.1 0.43,-0.22 0.67,-0.34 l 0.63,-0.38 18.09,-11.36 a 14.9,14.9 0 0 0 2.06,-1.5 6.33,6.33 0 0 0 1.24,-1.42 1.7,1.7 0 0 0 0.33,-1.12 1,1 0 0 0 -0.65,-0.72 3.29,3.29 0 0 0 -1.07,-0.17 8.55,8.55 0 0 0 -1.41,0.17 12.4,12.4 0 0 0 -1.66,0.44 16.46,16.46 0 0 0 -1.76,0.67 z"
     id="path19" />
  <path
     class="cls-3"
     d="m 180,79.59 -0.6,0.27 c -0.2,0.1 -0.4,0.2 -0.59,0.31 a 6.25,6.25 0 0 0 -0.63,0.33 c -0.21,0.13 -0.41,0.26 -0.64,0.38 l -18.6,11.59 a 25.26,25.26 0 0 0 -2.39,1.71 20.28,20.28 0 0 0 -1.94,1.82 10.52,10.52 0 0 0 -1.29,1.75 2.94,2.94 0 0 0 -0.47,1.44 1,1 0 0 0 0.31,0.7 1.48,1.48 0 0 0 0.81,0.29 4.12,4.12 0 0 0 1.25,-0.13 8.7,8.7 0 0 0 1.6,-0.52 6.64,6.64 0 0 0 0.62,-0.28 l 0.62,-0.3 0.66,-0.36 c 0.22,-0.13 0.43,-0.25 0.67,-0.41 L 179,86 a 23.16,23.16 0 0 0 2.42,-1.75 16.17,16.17 0 0 0 1.81,-1.79 6.77,6.77 0 0 0 1.07,-1.64 1.83,1.83 0 0 0 0.15,-1.26 0.94,0.94 0 0 0 -0.53,-0.54 2.24,2.24 0 0 0 -1,-0.16 5.71,5.71 0 0 0 -1.34,0.22 14.91,14.91 0 0 0 -1.58,0.51 z"
     id="path20" />
  <path
     class="cls-3"
     d="m 246.15,50.53 a 19.79,19.79 0 0 0 -1.9,0.94 11.54,11.54 0 0 0 -1.48,1 4.79,4.79 0 0 0 -1,1.06 1.77,1.77 0 0 0 -0.37,1 1.26,1.26 0 0 0 0.59,1 4.15,4.15 0 0 0 1.63,0.55 11.49,11.49 0 0 0 2.43,0 17.94,17.94 0 0 0 3,-0.57 l 25.41,-6.74 0.8,-0.23 c 0.27,-0.07 0.52,-0.16 0.78,-0.25 l 0.74,-0.26 c 0.24,-0.1 0.5,-0.19 0.72,-0.29 a 15.27,15.27 0 0 0 2.18,-1.08 9,9 0 0 0 1.62,-1.15 4.37,4.37 0 0 0 0.91,-1.13 1.23,1.23 0 0 0 0.08,-1 1.65,1.65 0 0 0 -1.09,-1 6.52,6.52 0 0 0 -2.1,-0.38 16.5,16.5 0 0 0 -2.91,0.13 26.78,26.78 0 0 0 -3.34,0.68 l -24.09,6.79 c -0.22,0.08 -0.46,0.13 -0.69,0.21 l -0.66,0.23 c -0.21,0.07 -0.43,0.16 -0.66,0.23 -0.23,0.07 -0.39,0.17 -0.6,0.26 z"
     id="path21" />
  <path
     class="cls-3"
     d="m 189.07,86.23 a 14.55,14.55 0 0 0 -1.36,0.69 c -0.46,0.29 -1,0.62 -1.43,1 -0.43,0.38 -1,0.8 -1.46,1.24 -0.46,0.44 -0.95,0.94 -1.41,1.47 L 166.53,110 a 21.06,21.06 0 0 0 -2.14,2.83 14.14,14.14 0 0 0 -1.33,2.63 5.52,5.52 0 0 0 -0.44,2.15 1.63,1.63 0 0 0 0.61,1.38 2.48,2.48 0 0 0 0.49,0.22 2.84,2.84 0 0 0 0.6,0.06 4.37,4.37 0 0 0 0.72,-0.11 4.77,4.77 0 0 0 0.77,-0.24 9.89,9.89 0 0 0 1.55,-0.79 12.65,12.65 0 0 0 1.7,-1.17 c 0.58,-0.45 1.15,-1 1.73,-1.52 a 24.35,24.35 0 0 0 1.65,-1.81 l 17.28,-20.58 a 18.21,18.21 0 0 0 1.75,-2.5 8.64,8.64 0 0 0 0.88,-2.18 2.86,2.86 0 0 0 0,-1.61 1.27,1.27 0 0 0 -0.85,-0.88 3.5,3.5 0 0 0 -0.52,-0.09 2.93,2.93 0 0 0 -0.58,0 4,4 0 0 0 -0.65,0.15 4.66,4.66 0 0 0 -0.68,0.29 z"
     id="path22" />
  <path
     class="cls-3"
     d="m 239.45,64.68 a 8.17,8.17 0 0 0 -0.84,0.39 5.67,5.67 0 0 0 -0.73,0.45 4.41,4.41 0 0 0 -0.6,0.5 2.94,2.94 0 0 0 -0.51,0.56 2.52,2.52 0 0 0 -0.52,1.52 2.46,2.46 0 0 0 0.59,1.43 4.92,4.92 0 0 0 1.62,1.2 9.87,9.87 0 0 0 2.54,0.77 l 25.06,4.23 a 18.35,18.35 0 0 0 2.42,0.29 23.54,23.54 0 0 0 2.39,-0.06 15.67,15.67 0 0 0 2.24,-0.33 13.24,13.24 0 0 0 2,-0.59 7.78,7.78 0 0 0 1.05,-0.48 8.26,8.26 0 0 0 0.88,-0.55 5.65,5.65 0 0 0 0.72,-0.64 3.82,3.82 0 0 0 0.48,-0.68 2.26,2.26 0 0 0 0.18,-1.9 3.77,3.77 0 0 0 -1.33,-1.72 9,9 0 0 0 -2.52,-1.34 16.27,16.27 0 0 0 -3.41,-0.79 l -24.81,-3.12 a 12.82,12.82 0 0 0 -1.85,-0.1 13.68,13.68 0 0 0 -1.82,0.12 12.5,12.5 0 0 0 -1.7,0.32 12.63,12.63 0 0 0 -1.53,0.52 z"
     id="path23" />
  <path
     class="cls-3"
     d="m 205.18,86.28 a 7.77,7.77 0 0 0 -1.76,1.06 10.26,10.26 0 0 0 -1.63,1.66 14.74,14.74 0 0 0 -1.35,2.07 11.44,11.44 0 0 0 -0.88,2.39 l -6,23.32 a 12.39,12.39 0 0 0 -0.44,3.39 7.77,7.77 0 0 0 0.45,2.77 4,4 0 0 0 1.37,1.8 3,3 0 0 0 2.1,0.48 1,1 0 0 0 0.26,0 l 0.26,-0.06 0.25,-0.07 0.26,-0.08 a 7.28,7.28 0 0 0 2.21,-1.37 12.29,12.29 0 0 0 2,-2.29 17.2,17.2 0 0 0 2.64,-6.16 l 4.68,-23.73 a 7.67,7.67 0 0 0 0.09,-2.5 4.07,4.07 0 0 0 -0.67,-1.82 2.62,2.62 0 0 0 -1.27,-1 A 3.27,3.27 0 0 0 206,86 h -0.22 a 1.39,1.39 0 0 0 -0.19,0.06 l -0.19,0.07 z"
     id="path24" />
  <path
     class="cls-3"
     d="m 224.33,78.24 -0.23,0.09 a 1.45,1.45 0 0 1 -0.25,0.12 l -0.22,0.13 a 1.49,1.49 0 0 0 -0.24,0.14 5.32,5.32 0 0 0 -2.4,3.43 5.09,5.09 0 0 0 0,2.13 5.79,5.79 0 0 0 0.91,2.1 l 12.1,17.51 a 9.71,9.71 0 0 0 2,2.13 9.91,9.91 0 0 0 2.45,1.41 8.14,8.14 0 0 0 2.68,0.57 7.13,7.13 0 0 0 2.6,-0.37 c 0.09,-0.06 0.21,-0.1 0.3,-0.15 a 1.87,1.87 0 0 0 0.32,-0.15 c 0.1,0 0.21,-0.1 0.31,-0.14 0.1,-0.04 0.19,-0.12 0.29,-0.2 a 5.29,5.29 0 0 0 1.9,-2.09 6.37,6.37 0 0 0 0.7,-2.72 8.07,8.07 0 0 0 -0.47,-2.93 9.39,9.39 0 0 0 -1.63,-2.8 l -13.7,-16.34 a 6.1,6.1 0 0 0 -1.62,-1.37 6,6 0 0 0 -1.9,-0.78 6.43,6.43 0 0 0 -2,-0.17 6,6 0 0 0 -1.9,0.45 z"
     id="path25" />
  <path
     class="cls-2"
     d="m 325.35,198.14 v -9.82 a 2.5,2.5 0 0 0 -0.76,-1.88 2.59,2.59 0 0 0 -1.91,-0.76 h -3.08 a 2.52,2.52 0 0 0 -1.89,0.76 2.61,2.61 0 0 0 -0.78,1.88 v 7.18 a 2.7,2.7 0 0 0 0.71,1.91 1.85,1.85 0 0 0 1.47,0.73 z m -12.07,-9.82 A 6.35,6.35 0 0 1 319.6,182 h 3.08 a 6.27,6.27 0 0 1 6.32,6.34 v 11.23 c 0,3.48 -0.86,6.07 -2.55,7.76 l -2,2 a 1.93,1.93 0 0 1 -1.3,0.58 1.74,1.74 0 0 1 -1.3,-0.58 1.91,1.91 0 0 1 -0.56,-1.33 1.87,1.87 0 0 1 0.69,-1.39 l 1.83,-2 a 3.65,3.65 0 0 0 1.23,-2 5.5,5.5 0 0 0 0.17,-0.88 h -6.15 a 5.45,5.45 0 0 1 -4.06,-1.83 6.33,6.33 0 0 1 -1.67,-4.4 z"
     id="path26" />
  <path
     class="cls-2"
     d="m 309.61,183.43 a 1.76,1.76 0 0 1 -1.88,1.83 h -2.65 a 1.37,1.37 0 0 0 -1.15,0.67 3.1,3.1 0 0 0 -0.61,2 v 11.62 a 1.71,1.71 0 0 1 -1.81,1.82 1.75,1.75 0 0 1 -1.86,-1.82 v -11.69 a 6.53,6.53 0 0 1 1.54,-4.36 5,5 0 0 1 3.89,-1.91 h 2.65 a 1.77,1.77 0 0 1 1.88,1.84 z"
     id="path27" />
  <path
     class="cls-2"
     d="m 292.26,195.54 a 6.13,6.13 0 0 1 -1.84,4.46 6.05,6.05 0 0 1 -4.43,1.86 h -3.16 a 6.26,6.26 0 0 1 -4.48,-1.86 6.12,6.12 0 0 1 -1.83,-4.46 v -11.62 a 1.82,1.82 0 1 1 3.64,0 v 11.62 a 2.46,2.46 0 0 0 0.79,1.89 2.39,2.39 0 0 0 1.88,0.76 H 286 a 2.34,2.34 0 0 0 1.81,-0.76 2.5,2.5 0 0 0 0.78,-1.89 v -11.62 a 1.77,1.77 0 0 1 1.86,-1.86 1.75,1.75 0 0 1 1.82,1.86 z"
     id="path28" />
  <path
     class="cls-2"
     d="m 267.44,199.93 a 6.06,6.06 0 0 1 -4.44,1.88 h -3.18 a 6.35,6.35 0 0 1 -6.24,-6.31 v -19.73 a 1.7,1.7 0 0 1 1.79,-1.81 1.75,1.75 0 0 1 1.86,1.81 V 182 h 6.17 a 5.44,5.44 0 0 1 4.18,1.91 6.32,6.32 0 0 1 1.67,4.4 v 7.18 a 6.07,6.07 0 0 1 -1.81,4.44 z m -1.84,-4.43 v -7.18 a 2.7,2.7 0 0 0 -0.71,-1.93 1.91,1.91 0 0 0 -1.52,-0.71 v 0 h -6.14 v 9.84 a 2.5,2.5 0 0 0 0.76,1.86 2.44,2.44 0 0 0 1.81,0.78 h 3.2 a 2.46,2.46 0 0 0 1.86,-0.78 2.49,2.49 0 0 0 0.74,-1.88 z"
     id="path29" />
  <path
     class="cls-2"
     d="m 230.4,188.32 a 6.27,6.27 0 0 1 6.27,-6.31 h 3.15 a 6,6 0 0 1 4.43,1.86 6.26,6.26 0 0 1 1.84,4.45 V 200 a 1.75,1.75 0 0 1 -1.84,1.86 1.79,1.79 0 0 1 -1.86,-1.86 v -11.68 a 2.58,2.58 0 0 0 -2.54,-2.64 h -3.16 a 2.53,2.53 0 0 0 -1.86,0.76 2.47,2.47 0 0 0 -0.76,1.88 V 200 a 1.77,1.77 0 0 1 -1.86,1.86 1.74,1.74 0 0 1 -1.81,-1.86 z"
     id="path30" />
  <path
     class="cls-2"
     d="m 220.22,187.74 a 2.16,2.16 0 0 0 -0.76,-1.62 2.68,2.68 0 0 0 -2,-0.78 H 214 a 2.6,2.6 0 0 0 -2,0.85 2.72,2.72 0 0 0 -0.78,2 v 2.13 h 6.66 a 2.1,2.1 0 0 0 1.64,-0.69 2.84,2.84 0 0 0 0.7,-1.89 z m 3.35,0 a 5.78,5.78 0 0 1 -5.58,5.83 v 0 h -6.68 v 1.84 a 2.53,2.53 0 0 0 0.71,1.86 1.91,1.91 0 0 0 1.54,0.73 h 4 a 1.77,1.77 0 0 1 1.86,1.84 1.75,1.75 0 0 1 -1.86,1.83 h -4 a 5.54,5.54 0 0 1 -4.26,-1.9 6.43,6.43 0 0 1 -1.66,-4.41 v -7.16 a 6.35,6.35 0 0 1 6.31,-6.34 h 3.35 a 6.39,6.39 0 0 1 4.41,1.69 5.46,5.46 0 0 1 1.86,4.16 z"
     id="path31" />
  <path
     class="cls-2"
     d="m 199.92,182 a 1.71,1.71 0 0 1 1.82,1.81 1.73,1.73 0 0 1 -1.82,1.84 h -2.64 V 200 a 1.68,1.68 0 0 1 -1.81,1.76 1.72,1.72 0 0 1 -1.86,-1.79 v -19.7 a 6.42,6.42 0 0 1 1.66,-4.41 5.49,5.49 0 0 1 4.19,-1.91 h 2.69 a 1.76,1.76 0 0 1 1.86,1.86 1.73,1.73 0 0 1 -1.86,1.79 h -2.69 a 1.94,1.94 0 0 0 -1.49,0.76 2.57,2.57 0 0 0 -0.69,1.91 V 182 Z"
     id="path32" />
  <path
     class="cls-2"
     d="m 178.43,200 v -19.7 a 6.29,6.29 0 0 1 1.67,-4.41 5.48,5.48 0 0 1 4.18,-1.91 H 187 a 1.76,1.76 0 0 1 1.86,1.86 1.74,1.74 0 0 1 -1.86,1.79 h -2.7 a 1.94,1.94 0 0 0 -1.49,0.76 2.71,2.71 0 0 0 -0.71,1.91 v 1.7 h 2.67 a 1.75,1.75 0 0 1 1.81,1.84 1.72,1.72 0 0 1 -1.81,1.81 H 182.1 V 200 a 1.67,1.67 0 0 1 -1.79,1.79 1.71,1.71 0 0 1 -1.88,-1.79 z"
     id="path33" />
  <path
     class="cls-2"
     d="m 167.1,195.54 v -2.15 h -6.68 a 2.27,2.27 0 0 0 -1.64,0.69 2.85,2.85 0 0 0 -0.64,1.91 2.12,2.12 0 0 0 0.76,1.61 2.75,2.75 0 0 0 2,0.76 h 3.47 a 2.52,2.52 0 0 0 2,-0.83 2.66,2.66 0 0 0 0.73,-1.99 z m 3.6,-7.17 v 7.15 a 6.35,6.35 0 0 1 -6.32,6.32 H 161 a 6.41,6.41 0 0 1 -4.41,-1.67 5.56,5.56 0 0 1 -1.86,-4.18 5.83,5.83 0 0 1 5.58,-5.81 v 0 h 6.71 v -1.88 a 2.67,2.67 0 0 0 -0.68,-1.86 2.09,2.09 0 0 0 -1.57,-0.74 h -4 a 1.72,1.72 0 0 1 -1.86,-1.78 1.74,1.74 0 0 1 1.86,-1.86 h 4 a 5.43,5.43 0 0 1 4.23,1.94 6.23,6.23 0 0 1 1.7,4.37 z"
     id="path34" />
  <path
     class="cls-2"
     d="m 144.38,188.32 a 2.45,2.45 0 0 0 -0.78,-1.88 2.48,2.48 0 0 0 -1.83,-0.78 H 136 V 200 a 1.82,1.82 0 1 1 -3.64,0 v -24.23 a 1.82,1.82 0 0 1 3.64,0 V 182 h 5.8 a 6,6 0 0 1 4.41,1.86 6.18,6.18 0 0 1 1.84,4.45 V 200 a 1.84,1.84 0 1 1 -3.68,0 z"
     id="path35" />
  <path
     class="cls-2"
     d="m 115.79,201.81 a 6,6 0 0 1 -4.43,-1.88 6.17,6.17 0 0 1 -1.83,-4.43 v -7.18 a 6.35,6.35 0 0 1 1.81,-4.45 6.14,6.14 0 0 1 4.45,-1.86 h 7.64 a 1.77,1.77 0 0 1 1.86,1.86 1.75,1.75 0 0 1 -1.86,1.81 h -7.64 a 2.6,2.6 0 0 0 -2.59,2.64 v 7.18 a 2.63,2.63 0 0 0 2.59,2.64 h 7.64 a 1.75,1.75 0 0 1 1.86,1.81 1.77,1.77 0 0 1 -1.86,1.86 z"
     id="path36" />
  <path
     class="cls-2"
     d="m 90.63,187.88 a 5.53,5.53 0 0 1 1.69,-4.16 5.62,5.62 0 0 1 4.16,-1.72 h 4 a 1.83,1.83 0 1 1 0,3.65 h -4 a 2.13,2.13 0 0 0 -1.6,0.66 2.07,2.07 0 0 0 -0.63,1.57 1.9,1.9 0 0 0 0.66,1.49 2.09,2.09 0 0 0 1.57,0.66 5.46,5.46 0 0 1 4.08,1.72 5.84,5.84 0 0 1 -4.11,10 h -4.03 a 1.68,1.68 0 0 1 -1.79,-1.75 1.73,1.73 0 0 1 1.79,-1.86 h 4.06 a 2.17,2.17 0 0 0 1.54,-0.64 2.08,2.08 0 0 0 0.64,-1.54 2.18,2.18 0 0 0 -0.64,-1.56 2.25,2.25 0 0 0 -1.54,-0.64 5.6,5.6 0 0 1 -4.19,-1.76 5.66,5.66 0 0 1 -1.66,-4.12 z"
     id="path37" />
  <path
     class="cls-2"
     d="m 78.66,189.67 v -8.47 a 3.55,3.55 0 0 0 -0.93,-2.37 3,3 0 0 0 -2.28,-1 h -3 a 2.94,2.94 0 0 0 -2.22,1 3.47,3.47 0 0 0 -1,2.4 v 8.47 z M 65.39,199.83 V 181.2 a 7.1,7.1 0 0 1 2.06,-5.2 6.68,6.68 0 0 1 4.94,-2 h 3.06 a 6.94,6.94 0 0 1 5,2 7.58,7.58 0 0 1 2.08,5.19 v 18.63 a 2,2 0 0 1 -0.59,1.49 2,2 0 0 1 -1.42,0.49 1.73,1.73 0 0 1 -1.35,-0.54 2.14,2.14 0 0 1 -0.51,-1.44 v -6.49 h -9.4 v 6.49 a 2,2 0 0 1 -0.49,1.42 1.67,1.67 0 0 1 -1.42,0.56 1.93,1.93 0 0 1 -1.39,-0.49 2,2 0 0 1 -0.57,-1.48 z"
     id="path38" />
  <path
     class="cls-2"
     d="m 32.59,187.34 v -11.65 a 1.82,1.82 0 0 1 0.47,-1.32 2,2 0 0 1 1.42,-0.56 h 0.05 a 2,2 0 0 1 1.44,0.54 1.83,1.83 0 0 1 0.49,1.34 v 10.46 h 9.47 v -10.46 a 2,2 0 0 1 0.47,-1.32 2,2 0 0 1 1.42,-0.56 v 0 a 2,2 0 0 1 1.44,0.54 1.83,1.83 0 0 1 0.49,1.34 v 24 a 1.83,1.83 0 0 1 -0.49,1.35 2,2 0 0 1 -1.44,0.51 v 0 a 1.74,1.74 0 0 1 -1.89,-1.86 V 190 h -9.47 v 9.67 A 1.83,1.83 0 0 1 36,201 a 2,2 0 0 1 -1.44,0.51 h -0.05 a 1.92,1.92 0 0 1 -1.42,-0.54 1.81,1.81 0 0 1 -0.47,-1.32 z"
     id="path39" />
  <path
     class="cls-2"
     d="m 9.68,173.81 h 17.75 a 1.81,1.81 0 0 1 1.91,1.93 v 0.08 a 1.91,1.91 0 0 1 -0.57,1.42 2,2 0 0 1 -1.34,0.46 h -7 v 22.1 a 1.88,1.88 0 0 1 -0.49,1.35 2,2 0 0 1 -1.45,0.51 v 0 a 2,2 0 0 1 -1.42,-0.53 1.86,1.86 0 0 1 -0.46,-1.33 V 177.7 H 9.68 a 2,2 0 0 1 -1.34,-0.46 1.91,1.91 0 0 1 -0.57,-1.42 v -0.08 a 1.81,1.81 0 0 1 1.91,-1.93 z"
     id="path40" />
  <metadata
     id="metadata69">
    <rdf:RDF>
      <cc:Work
         rdf:about="">
        <dc:title>Claim_Slogan_Pfade</dc:title>
      </cc:Work>
    </rdf:RDF>
  </metadata>
</svg>
